<?xml version="1.0" encoding="iso-8859-1"?>
<!-- Generator: Adobe Illustrator 16.0.4, SVG Export Plug-In . SVG Version: 6.00 Build 0)  -->
<!DOCTYPE svg PUBLIC "-//W3C//DTD SVG 1.1//EN" "http://www.w3.org/Graphics/SVG/1.1/DTD/svg11.dtd">
<svg version="1.1" id="Capa_1" xmlns="http://www.w3.org/2000/svg" xmlns:xlink="http://www.w3.org/1999/xlink" x="0px" y="0px"
	 width="32px" height="26px" viewBox="0 0 32 26" style="enable-background:new 0 0 32 26;" xml:space="preserve">
<g id="Megaphone">
	<g>
		<path d="M21,3c-0.216,0-0.561,0.002-0.939,0.248L1.699,9.047C1.546,9.095,1.406,9.18,1.293,9.293C1.16,9.425,0,10.653,0,13
			c0,2.348,1.16,3.574,1.293,3.707c0.113,0.113,0.253,0.197,0.406,0.246l3.302,1.043C5.001,17.998,5,17.998,5,18v4
			c0,1.654,1.346,3,3,3h5c1.654,0,3-1.346,3-3v-0.529l4.061,1.28C20.438,22.997,20.779,23,20.997,23h0.006
			C21.748,23,24,22.986,24,13C24,3,21.742,3,21,3z M14,21v1c0,0.551-0.448,1-1,1H8c-0.552,0-1-0.449-1-1v-3.372l7.03,2.22
			C14.022,20.898,14,20.945,14,21z M18.657,20.212L2.589,15.137C2.381,14.836,2,14.13,2,13c0-1.135,0.385-1.843,0.587-2.137
			l16.07-5.075C18.271,7.269,18,9.532,18,13C18,16.469,18.271,18.732,18.657,20.212z M21,20.82c-0.384-0.676-1-2.814-1-7.82
			s0.616-7.145,1-7.82c0.384,0.676,1,2.814,1,7.82S21.384,20.146,21,20.82z M26.193,21.43C27.375,18.936,28,16.021,28,13
			c0-3.021-0.625-5.936-1.807-8.428c-0.236-0.5-0.832-0.713-1.332-0.477c-0.5,0.237-0.713,0.833-0.475,1.332
			C25.441,7.656,26,10.273,26,13c0,2.727-0.559,5.344-1.613,7.572c-0.236,0.498-0.023,1.095,0.475,1.33
			C25,21.969,25.146,22,25.289,22C25.664,22,26.021,21.789,26.193,21.43z M27.037,0.251c-0.413-0.366-1.045-0.327-1.411,0.087
			s-0.327,1.046,0.087,1.411C28.357,4.087,30,8.398,30,13c0,4.602-1.643,8.912-4.287,11.251c-0.414,0.366-0.453,0.997-0.087,1.411
			C25.823,25.886,26.1,26,26.375,26c0.234,0,0.473-0.082,0.662-0.251C30.145,23.002,32,18.236,32,13
			C32,7.765,30.145,2.998,27.037,0.251z"/>
	</g>
</g>
</svg>
