<?xml version="1.0" encoding="iso-8859-1"?>
<!-- Generator: Adobe Illustrator 16.0.4, SVG Export Plug-In . SVG Version: 6.00 Build 0)  -->
<!DOCTYPE svg PUBLIC "-//W3C//DTD SVG 1.1//EN" "http://www.w3.org/Graphics/SVG/1.1/DTD/svg11.dtd">
<svg version="1.1" id="Capa_1" xmlns="http://www.w3.org/2000/svg" xmlns:xlink="http://www.w3.org/1999/xlink" x="0px" y="0px"
	 width="20px" height="32.027px" viewBox="0 0 20 32.027" style="enable-background:new 0 0 20 32.027;" xml:space="preserve">
<g id="Arrow_x5F_Left_x5F_1">
	<g>
		<path d="M10.293,16.734C10.104,16.545,10,16.294,10,16.027c0-0.269,0.104-0.519,0.291-0.705l8.537-8.494
			C19.583,6.073,20,5.068,20,4c0-1.067-0.416-2.071-1.172-2.828C18.072,0.416,17.068,0,16,0s-2.072,0.416-2.816,1.16L1.465,12.492
			C0.521,13.436,0,14.691,0,16.027s0.521,2.592,1.479,3.551l10.084,9.671l1.606,1.606c0.756,0.756,1.761,1.172,2.828,1.172
			c1.068,0,2.073-0.416,2.828-1.171c0.756-0.756,1.172-1.761,1.172-2.828c0-1.068-0.416-2.073-1.174-2.832L10.293,16.734z
			 M17.414,29.441c-0.756,0.756-2.074,0.756-2.83,0L2.879,18.148C2.312,17.582,2,16.828,2,16.027c0-0.802,0.312-1.555,0.867-2.109
			L14.585,2.586C14.962,2.208,15.464,2,16,2c0.533,0,1.035,0.208,1.414,0.586C17.791,2.964,18,3.466,18,4s-0.209,1.036-0.584,1.412
			l-8.537,8.494C8.312,14.473,8,15.226,8,16.027s0.312,1.555,0.882,2.124l8.532,8.462C17.791,26.991,18,27.494,18,28.028
			S17.791,29.063,17.414,29.441z"/>
	</g>
</g>
</svg>
