<?xml version="1.0" encoding="iso-8859-1"?>
<!-- Generator: Adobe Illustrator 16.0.4, SVG Export Plug-In . SVG Version: 6.00 Build 0)  -->
<!DOCTYPE svg PUBLIC "-//W3C//DTD SVG 1.1//EN" "http://www.w3.org/Graphics/SVG/1.1/DTD/svg11.dtd">
<svg version="1.1" id="Capa_1" xmlns="http://www.w3.org/2000/svg" xmlns:xlink="http://www.w3.org/1999/xlink" x="0px" y="0px"
	 width="20px" height="32.027px" viewBox="0 0 20 32.027" style="enable-background:new 0 0 20 32.027;" xml:space="preserve">
<g id="Arrow_x5F_Right_x5F_1">
	<g>
		<path d="M18.536,12.492L6.817,1.16C6.073,0.416,5.069,0,4.001,0C2.932,0,1.928,0.416,1.173,1.172C0.417,1.928,0.001,2.932,0.001,4
			c0,1.068,0.416,2.073,1.172,2.828l8.536,8.494C9.897,15.51,10,15.76,10,16.027c0,0.267-0.104,0.518-0.293,0.707l-8.531,8.462
			c-0.759,0.759-1.175,1.764-1.175,2.832c0,1.067,0.416,2.072,1.172,2.828c0.755,0.755,1.76,1.171,2.828,1.171
			s2.073-0.416,2.829-1.172l1.606-1.606l10.084-9.671c0.959-0.959,1.479-2.215,1.479-3.551S19.48,13.436,18.536,12.492z
			 M17.122,18.148L5.416,29.441c-0.756,0.756-2.073,0.756-2.829,0c-0.378-0.378-0.586-0.879-0.586-1.413s0.208-1.037,0.586-1.415
			l8.531-8.462C11.687,17.582,12,16.828,12,16.027c0-0.802-0.312-1.555-0.879-2.121L2.585,5.412C2.209,5.036,2.001,4.534,2.001,4
			s0.208-1.036,0.586-1.414S3.467,2,4.001,2s1.036,0.208,1.414,0.586l11.718,11.332C17.688,14.473,18,15.226,18,16.027
			S17.688,17.582,17.122,18.148z"/>
	</g>
</g>
</svg>
