<?xml version="1.0" encoding="iso-8859-1"?>
<!-- Generator: Adobe Illustrator 16.0.4, SVG Export Plug-In . SVG Version: 6.00 Build 0)  -->
<!DOCTYPE svg PUBLIC "-//W3C//DTD SVG 1.1//EN" "http://www.w3.org/Graphics/SVG/1.1/DTD/svg11.dtd">
<svg version="1.1" id="Capa_1" xmlns="http://www.w3.org/2000/svg" xmlns:xlink="http://www.w3.org/1999/xlink" x="0px" y="0px"
	 width="32px" height="32.027px" viewBox="0 0 32 32.027" style="enable-background:new 0 0 32 32.027;" xml:space="preserve">
<g id="Arrow_x5F_Left_x5F_2">
	<g>
		<path d="M28,12.027H15c-0.18,0-0.299-0.093-0.356-0.15c-0.093-0.093-0.144-0.217-0.144-0.35c0-0.18,0.092-0.299,0.16-0.367
			l4.167-4.332c0.756-0.755,1.172-1.76,1.172-2.828c0-1.067-0.416-2.071-1.172-2.828C18.072,0.416,17.068,0,15.999,0
			c-1.068,0-2.072,0.416-2.816,1.16L1.465,12.492C0.521,13.436,0,14.691,0,16.027s0.521,2.592,1.465,3.536
			c0.051,0.051,0.106,0.095,0.165,0.132l11.541,11.16c0.756,0.756,1.76,1.172,2.828,1.172c1.069,0,2.073-0.416,2.828-1.172
			c0.756-0.755,1.172-1.76,1.172-2.828s-0.416-2.073-1.158-2.814l-4.194-4.358C14.592,20.799,14.5,20.681,14.5,20.5
			c0-0.133,0.051-0.257,0.146-0.353C14.701,20.093,14.82,20,15,20h13c2.195,0,3.99-1.786,4-3.99v-0.036
			C31.971,13.794,30.184,12.027,28,12.027z M28,18H15c-0.67,0-1.3,0.264-1.771,0.736c-0.471,0.47-0.729,1.097-0.729,1.764
			c0,0.668,0.26,1.295,0.719,1.754l4.194,4.359c0.378,0.378,0.586,0.88,0.586,1.414s-0.208,1.036-0.586,1.414
			c-0.756,0.756-2.061,0.768-2.84-0.012L2.867,18.109c-0.036-0.035-0.074-0.067-0.115-0.095C2.266,17.466,2,16.767,2,16.027
			c0-0.801,0.312-1.555,0.867-2.109L14.585,2.586c0.756-0.756,2.072-0.756,2.828,0c0.378,0.378,0.586,0.88,0.586,1.414
			s-0.208,1.036-0.601,1.429L13.232,9.76c-0.473,0.473-0.732,1.101-0.732,1.769c0,0.667,0.259,1.294,0.727,1.762
			C13.7,13.765,14.33,14.027,15,14.027h13c1.098,0,1.995,0.893,2,1.981C29.995,17.106,29.098,18,28,18z"/>
	</g>
</g>
</svg>
