<?xml version="1.0" encoding="iso-8859-1"?>
<!-- Generator: Adobe Illustrator 16.0.4, SVG Export Plug-In . SVG Version: 6.00 Build 0)  -->
<!DOCTYPE svg PUBLIC "-//W3C//DTD SVG 1.1//EN" "http://www.w3.org/Graphics/SVG/1.1/DTD/svg11.dtd">
<svg version="1.1" id="Capa_1" xmlns="http://www.w3.org/2000/svg" xmlns:xlink="http://www.w3.org/1999/xlink" x="0px" y="0px"
	 width="32px" height="32.027px" viewBox="0 0 32 32.027" style="enable-background:new 0 0 32 32.027;" xml:space="preserve">
<g id="Arrow_x5F_Right_x5F_2">
	<g>
		<path d="M30.535,12.492L18.816,1.16C18.072,0.416,17.068,0,16,0c-1.069,0-2.073,0.416-2.828,1.172C12.417,1.928,12,2.932,12,4
			c0,1.068,0.416,2.073,1.172,2.828l4.167,4.332c0.068,0.068,0.16,0.188,0.16,0.367c0,0.133-0.051,0.257-0.145,0.35
			c-0.059,0.059-0.176,0.15-0.355,0.15H4c-2.184,0-3.971,1.767-4,3.945v0.036C0.009,18.214,1.804,20,4,20h13
			c0.18,0,0.299,0.093,0.354,0.147c0.096,0.096,0.146,0.22,0.146,0.353c0,0.182-0.092,0.299-0.146,0.354l-4.194,4.358
			c-0.742,0.741-1.158,1.746-1.158,2.814s0.416,2.073,1.172,2.828c0.755,0.756,1.759,1.172,2.828,1.172s2.073-0.416,2.829-1.172
			l11.541-11.16c0.059-0.037,0.113-0.081,0.164-0.132C31.48,18.619,32,17.363,32,16.027S31.479,13.436,30.535,12.492z
			 M29.248,18.015c-0.041,0.026-0.08,0.06-0.115,0.095L17.426,29.43c-0.777,0.778-2.083,0.768-2.839,0.012
			C14.208,29.064,14,28.562,14,28.028s0.208-1.036,0.586-1.414l4.195-4.359c0.459-0.46,0.719-1.087,0.719-1.755
			c0-0.667-0.26-1.294-0.729-1.764C18.299,18.263,17.67,18,17,18H4c-1.098,0-1.995-0.894-2-1.99c0.005-1.09,0.902-1.981,2-1.981h13
			c0.67,0,1.299-0.263,1.773-0.738c0.467-0.468,0.727-1.095,0.727-1.762c0-0.668-0.26-1.296-0.732-1.769l-4.167-4.331
			C14.208,5.036,14,4.534,14,4s0.208-1.036,0.586-1.414c0.756-0.756,2.072-0.756,2.828,0l11.719,11.332
			C29.688,14.473,30,15.227,30,16.027C30,16.767,29.734,17.466,29.248,18.015z"/>
	</g>
</g>
</svg>
