<?xml version="1.0" encoding="iso-8859-1"?>
<!-- Generator: Adobe Illustrator 16.0.4, SVG Export Plug-In . SVG Version: 6.00 Build 0)  -->
<!DOCTYPE svg PUBLIC "-//W3C//DTD SVG 1.1//EN" "http://www.w3.org/Graphics/SVG/1.1/DTD/svg11.dtd">
<svg version="1.1" id="Capa_1" xmlns="http://www.w3.org/2000/svg" xmlns:xlink="http://www.w3.org/1999/xlink" x="0px" y="0px"
	 width="32px" height="26px" viewBox="0 0 32 26" style="enable-background:new 0 0 32 26;" xml:space="preserve">
<g id="Headphones">
	<g>
		<path d="M30.971,15.645C30.979,15.596,31,15.551,31,15.5C31,6.953,24.271,0,16,0C7.729,0,1,6.953,1,15.5
			c0,0.051,0.021,0.096,0.029,0.145C0.38,16.602,0,17.757,0,19c0,3.23,2.568,5.866,5.771,5.988C6.32,25.604,7.111,26,8,26
			c1.654,0,3-1.346,3-3v-8c0-1.654-1.346-3-3-3c-0.889,0-1.68,0.396-2.229,1.012c-0.937,0.035-1.82,0.281-2.601,0.7
			C4.137,8.147,9.514,3.871,16,3.871c6.486,0,11.863,4.276,12.83,9.841c-0.78-0.419-1.664-0.665-2.602-0.7
			C25.68,12.396,24.889,12,24,12c-1.654,0-3,1.346-3,3v8c0,1.654,1.346,3,3,3c0.889,0,1.68-0.396,2.229-1.012
			C29.432,24.866,32,22.23,32,19C32,17.757,31.62,16.602,30.971,15.645z M7,15c0-0.551,0.448-1,1-1s1,0.449,1,1v8
			c0,0.552-0.448,1-1,1s-1-0.448-1-1V15z M5,15.143v7.715c-1.721-0.447-3-2-3-3.857S3.279,15.59,5,15.143z M25,23
			c0,0.552-0.448,1-1,1s-1-0.448-1-1v-8c0-0.551,0.448-1,1-1s1,0.449,1,1V23z M27,22.857v-7.717c1.721,0.448,3,2,3,3.858
			S28.721,22.41,27,22.857z"/>
	</g>
</g>
</svg>
