<?xml version="1.0" encoding="iso-8859-1"?>
<!-- Generator: Adobe Illustrator 16.0.4, SVG Export Plug-In . SVG Version: 6.00 Build 0)  -->
<!DOCTYPE svg PUBLIC "-//W3C//DTD SVG 1.1//EN" "http://www.w3.org/Graphics/SVG/1.1/DTD/svg11.dtd">
<svg version="1.1" id="Capa_1" xmlns="http://www.w3.org/2000/svg" xmlns:xlink="http://www.w3.org/1999/xlink" x="0px" y="0px"
	 width="26px" height="32px" viewBox="0 0 26 32" style="enable-background:new 0 0 26 32;" xml:space="preserve">
<g id="Pointer">
	<g>
		<path d="M13,0C5.832,0,0,5.832,0,13c0,11.441,11.986,18.566,12.496,18.864C12.651,31.954,12.826,32,13,32s0.349-0.046,0.504-0.136
			C14.014,31.566,26,24.441,26,13C26,5.832,20.168,0,13,0z M12.999,29.818C10.779,28.366,2,22.049,2,13C2,6.935,6.935,2,13,2
			c6.064,0,11,4.935,11,11C24,22.029,15.219,28.363,12.999,29.818z M13,10c-1.656,0-3,1.344-3,3s1.344,3,3,3s3-1.344,3-3
			S14.656,10,13,10z"/>
	</g>
</g>
</svg>
