<?xml version="1.0" encoding="iso-8859-1"?>
<!-- Generator: Adobe Illustrator 16.0.4, SVG Export Plug-In . SVG Version: 6.00 Build 0)  -->
<!DOCTYPE svg PUBLIC "-//W3C//DTD SVG 1.1//EN" "http://www.w3.org/Graphics/SVG/1.1/DTD/svg11.dtd">
<svg version="1.1" id="Capa_1" xmlns="http://www.w3.org/2000/svg" xmlns:xlink="http://www.w3.org/1999/xlink" x="0px" y="0px"
	 width="32px" height="39.5px" viewBox="0 0 32 39.5" style="enable-background:new 0 0 32 39.5;" xml:space="preserve">
<g id="Label">
	<g>
		<path d="M31.631,18.312l-2.972-4.953C28.141,12.366,27.121,11.75,26,11.75H3c-1.654,0-3,1.346-3,3v10c0,1.654,1.346,3,3,3h23
			c1.125,0,2.146-0.621,2.633-1.564l3.031-5.055C31.884,20.706,32,20.229,32,19.75C32,19.269,31.882,18.789,31.631,18.312z
			 M29.918,20.158l-3.031,5.053C26.715,25.544,26.375,25.75,26,25.75H3c-0.552,0-1-0.449-1-1v-10c0-0.552,0.448-1,1-1h23
			c0.374,0,0.714,0.206,0.916,0.587l2.971,4.953C29.962,19.433,30,19.588,30,19.75S29.962,20.068,29.918,20.158z M23,15.75
			c-2.205,0-4,1.795-4,4s1.795,4,4,4s4-1.795,4-4S25.205,15.75,23,15.75z M23,21.75c-1.104,0-2-0.896-2-2c0-1.103,0.896-2,2-2
			s2,0.897,2,2C25,20.854,24.104,21.75,23,21.75z"/>
	</g>
</g>
</svg>
