<?xml version="1.0" encoding="iso-8859-1"?>
<!-- Generator: Adobe Illustrator 16.0.4, SVG Export Plug-In . SVG Version: 6.00 Build 0)  -->
<!DOCTYPE svg PUBLIC "-//W3C//DTD SVG 1.1//EN" "http://www.w3.org/Graphics/SVG/1.1/DTD/svg11.dtd">
<svg version="1.1" id="Capa_1" xmlns="http://www.w3.org/2000/svg" xmlns:xlink="http://www.w3.org/1999/xlink" x="0px" y="0px"
	 width="32px" height="24px" viewBox="0 0 32 24" style="enable-background:new 0 0 32 24;" xml:space="preserve">
<g id="Cassette">
	<g>
		<path d="M29,0H3C1.346,0,0,1.346,0,3v18c0,1.654,1.346,3,3,3h26c1.654,0,3-1.346,3-3V3C32,1.346,30.654,0,29,0z M30,21
			c0,0.551-0.448,1-1,1h-1.465l-1.703-2.555C25.646,19.167,25.335,19,25,19H7c-0.335,0-0.646,0.167-0.832,0.445L4.465,22H3
			c-0.552,0-1-0.449-1-1V3c0-0.552,0.448-1,1-1h26c0.552,0,1,0.448,1,1V21z M22,7H10c-2.206,0-4,1.794-4,4s1.794,4,4,4h12
			c2.206,0,4-1.794,4-4S24.206,7,22,7z M10,13c-1.103,0-2-0.896-2-2s0.897-2,2-2s2,0.896,2,2S11.103,13,10,13z M18.557,13h-5.113
			C13.788,12.409,14,11.732,14,11s-0.212-1.409-0.557-2h5.114C18.212,9.591,18,10.268,18,11S18.212,12.409,18.557,13z M22,13
			c-1.104,0-2-0.896-2-2s0.896-2,2-2s2,0.896,2,2S23.104,13,22,13z"/>
	</g>
</g>
</svg>
