<?xml version="1.0" encoding="iso-8859-1"?>
<!-- Generator: Adobe Illustrator 16.0.4, SVG Export Plug-In . SVG Version: 6.00 Build 0)  -->
<!DOCTYPE svg PUBLIC "-//W3C//DTD SVG 1.1//EN" "http://www.w3.org/Graphics/SVG/1.1/DTD/svg11.dtd">
<svg version="1.1" id="Capa_1" xmlns="http://www.w3.org/2000/svg" xmlns:xlink="http://www.w3.org/1999/xlink" x="0px" y="0px"
	 width="32px" height="31.98px" viewBox="0 0 32 31.98" style="enable-background:new 0 0 32 31.98;" xml:space="preserve">
<g id="Cinema_x5F_Camera">
	<g>
		<path d="M16.654,15.887c0.328-0.136,0.484-0.512,0.349-0.84c-0.021-0.05-0.047-0.096-0.077-0.137
			c-0.747-1.462-3.489-2.56-4.972-1.944c-0.328,0.136-0.483,0.511-0.348,0.839l1.094,2.641c0.136,0.328,0.978,0.679,1.307,0.541
			l2.636-1.095C16.646,15.89,16.652,15.888,16.654,15.887z M11.301,23.52c-0.136-0.328-0.979-0.678-1.307-0.541l-2.64,1.093
			c-0.329,0.137-0.484,0.513-0.348,0.841c0.634,1.53,3.507,2.723,5.04,2.088c0.328-0.136,0.483-0.511,0.348-0.84L11.301,23.52z
			 M18.178,19.588l-2.641,1.094c-0.328,0.137-0.677,0.979-0.541,1.308l1.094,2.641c0.136,0.328,0.512,0.482,0.84,0.348
			c1.532-0.635,2.723-3.509,2.088-5.04C18.881,19.609,18.506,19.453,18.178,19.588z M9.005,17.977l-1.094-2.641
			c-0.136-0.328-0.512-0.483-0.84-0.349c-1.533,0.636-2.722,3.511-2.088,5.04c0.137,0.329,0.512,0.483,0.84,0.349l2.64-1.093
			C8.792,19.147,9.141,18.305,9.005,17.977z M11.618,19.059c-0.511,0.211-0.753,0.796-0.541,1.308
			c0.211,0.511,0.795,0.752,1.307,0.541c0.51-0.213,0.752-0.797,0.541-1.308C12.713,19.089,12.129,18.847,11.618,19.059z
			 M31.939,10.382c-0.01-0.044-0.027-0.084-0.039-0.128c-0.037-0.148-0.076-0.296-0.137-0.438c-0.014-0.031-0.033-0.061-0.049-0.093
			c-0.066-0.145-0.139-0.287-0.229-0.42c-0.016-0.021-0.035-0.039-0.051-0.061C31.341,9.11,31.24,8.979,31.121,8.86
			c-0.046-0.046-0.1-0.076-0.146-0.118c-0.1-0.089-0.197-0.179-0.309-0.252c-0.079-0.055-0.166-0.092-0.249-0.137
			c-0.09-0.049-0.176-0.103-0.271-0.143c-0.088-0.035-0.178-0.056-0.267-0.082c-0.099-0.031-0.194-0.068-0.297-0.089
			c-0.165-0.032-0.332-0.045-0.5-0.05c-0.026,0-0.056-0.009-0.083-0.009c-0.029,0-0.057,0.009-0.085,0.01
			c-0.169,0.005-0.338,0.018-0.505,0.051c-0.059,0.012-0.111,0.034-0.168,0.05c-0.135,0.034-0.27,0.069-0.396,0.123
			c-0.045,0.019-0.084,0.046-0.127,0.065c-0.134,0.062-0.266,0.129-0.39,0.212c-0.05,0.032-0.089,0.074-0.136,0.109
			c-0.104,0.079-0.209,0.153-0.305,0.248l-4.803,4.655c-2.064-3.204-5.607-5.358-9.66-5.502l-4.903-4.74
			c-0.021-0.02-0.047-0.026-0.068-0.043c0.048-0.172,0.08-0.347,0.08-0.529c0.001-0.535-0.207-1.038-0.586-1.416L6.242,0.567
			c-0.756-0.756-2.072-0.756-2.828,0L0.588,3.394C0.209,3.77,0.001,4.272,0,4.805c-0.001,0.535,0.206,1.039,0.586,1.42L1.293,6.93
			c0.378,0.378,0.88,0.586,1.414,0.586c0.184,0,0.36-0.033,0.532-0.081c0.021,0.026,0.03,0.059,0.054,0.081l2.322,2.322
			C2.248,11.965,0,15.711,0,19.981c0,2.171,0.588,4.203,1.6,5.961c0.811,1.46,0.329,3.315-1.114,4.183
			c-0.474,0.284-0.627,0.897-0.343,1.372c0.188,0.312,0.519,0.484,0.858,0.484c0.175,0,0.353-0.046,0.514-0.143
			c1.193-0.716,1.984-1.847,2.312-3.097c2.145,2.003,5.015,3.238,8.174,3.238c4.231,0,7.949-2.206,10.087-5.522l4.792,4.645
			c0.045,0.045,0.099,0.077,0.146,0.119c0.101,0.088,0.199,0.178,0.311,0.252c0.079,0.054,0.165,0.09,0.248,0.135
			c0.09,0.05,0.178,0.104,0.271,0.145c0.078,0.032,0.16,0.05,0.24,0.075c0.107,0.033,0.213,0.072,0.325,0.096
			c0.076,0.015,0.153,0.015,0.229,0.022c0.117,0.015,0.229,0.035,0.351,0.035c0.119,0,0.233-0.021,0.349-0.035
			c0.077-0.009,0.155-0.009,0.231-0.022c0.112-0.022,0.218-0.062,0.325-0.097c0.08-0.024,0.162-0.042,0.24-0.074
			c0.096-0.04,0.183-0.095,0.271-0.145c0.083-0.044,0.169-0.081,0.248-0.135c0.109-0.074,0.208-0.163,0.309-0.251
			c0.047-0.042,0.102-0.074,0.146-0.12c0.119-0.119,0.22-0.25,0.316-0.385c0.015-0.021,0.035-0.039,0.049-0.061
			c0.092-0.136,0.164-0.278,0.23-0.425c0.014-0.029,0.034-0.058,0.047-0.089c0.061-0.141,0.1-0.288,0.137-0.438
			c0.012-0.043,0.029-0.083,0.039-0.127C31.979,29.385,32,29.184,32,28.981v-18C32,10.778,31.979,10.577,31.939,10.382z
			 M2.706,5.515L2,4.81l2.828-2.829l0.707,0.707L2.706,5.515z M4.828,6.223l1.416-1.416L9.753,8.2
			c-0.788,0.148-1.55,0.376-2.275,0.673L4.828,6.223z M12,29.981c-3.711,0-6.95-2.037-8.676-5.047
			c-0.021-0.038-0.031-0.078-0.054-0.115c-0.013-0.021-0.034-0.031-0.048-0.053C2.444,23.344,2,21.713,2,19.981
			c0-5.514,4.486-10,10-10c5.514,0,10,4.486,10,10C22,25.495,17.514,29.981,12,29.981z M26,27.465l-2.936-2.845
			C23.666,23.193,24,21.625,24,19.981c0-1.644-0.334-3.212-0.936-4.64L26,12.497V27.465z M30,28.981
			c0,0.138-0.027,0.268-0.078,0.387c-0.044,0.104-0.111,0.197-0.189,0.283c-0.015,0.017-0.024,0.032-0.039,0.048
			c-0.094,0.09-0.198,0.159-0.312,0.205c-0.045,0.02-0.098,0.019-0.146,0.03c-0.326,0.078-0.684,0.006-0.944-0.252
			C28.111,29.501,28,29.254,28,28.981v-18c0-0.284,0.122-0.538,0.312-0.72c0.092-0.088,0.193-0.157,0.305-0.203
			c0.117-0.049,0.246-0.077,0.383-0.077s0.266,0.028,0.383,0.077c0.11,0.046,0.213,0.115,0.305,0.203
			c0.018,0.016,0.029,0.033,0.045,0.05c0.078,0.086,0.146,0.181,0.189,0.284C29.973,10.714,30,10.844,30,10.981V28.981z"/>
	</g>
</g>
</svg>
