<?xml version="1.0" encoding="iso-8859-1"?>
<!-- Generator: Adobe Illustrator 16.0.4, SVG Export Plug-In . SVG Version: 6.00 Build 0)  -->
<!DOCTYPE svg PUBLIC "-//W3C//DTD SVG 1.1//EN" "http://www.w3.org/Graphics/SVG/1.1/DTD/svg11.dtd">
<svg version="1.1" id="Capa_1" xmlns="http://www.w3.org/2000/svg" xmlns:xlink="http://www.w3.org/1999/xlink" x="0px" y="0px"
	 width="28px" height="32px" viewBox="0 0 28 32" style="enable-background:new 0 0 28 32;" xml:space="preserve">
<g id="Load">
	<g>
		<path d="M27,17c-0.552,0-1,0.447-1,1c0,6.616-5.383,12-12,12S2,24.616,2,18C2,11.383,7.383,6,14,6v3
			c0,0.369,0.203,0.708,0.527,0.883c0.147,0.078,0.311,0.118,0.473,0.118c0.193,0,0.387-0.057,0.555-0.168l6-4.001
			C21.833,5.646,22,5.335,22,5.001c0-0.335-0.167-0.646-0.445-0.832l-6-4c-0.308-0.206-0.703-0.225-1.025-0.05
			C14.203,0.293,14,0.632,14,1.001V4C6.28,4,0,10.28,0,18c0,7.721,6.28,14,14,14c7.721,0,14-6.279,14-14C28,17.447,27.552,17,27,17z
			 M16,2.869l3.197,2.132L16,7.132V2.869z"/>
	</g>
</g>
</svg>
