<?xml version="1.0" encoding="iso-8859-1"?>
<!-- Generator: Adobe Illustrator 16.0.4, SVG Export Plug-In . SVG Version: 6.00 Build 0)  -->
<!DOCTYPE svg PUBLIC "-//W3C//DTD SVG 1.1//EN" "http://www.w3.org/Graphics/SVG/1.1/DTD/svg11.dtd">
<svg version="1.1" id="Capa_1" xmlns="http://www.w3.org/2000/svg" xmlns:xlink="http://www.w3.org/1999/xlink" x="0px" y="0px"
	 width="28px" height="32px" viewBox="0 0 28 32" style="enable-background:new 0 0 28 32;" xml:space="preserve">
<g id="Badge_x5F_7">
	<g>
		<path d="M20.275,5.503l1.525-3.813C21.924,1.49,22,1.264,22,1c0-0.003-0.002-0.006-0.002-0.008
			c-0.001-0.106-0.027-0.207-0.062-0.307c-0.009-0.024-0.006-0.054-0.017-0.077c-0.03-0.074-0.086-0.135-0.135-0.2
			c-0.028-0.037-0.046-0.083-0.079-0.116c-0.025-0.025-0.062-0.039-0.092-0.062c-0.073-0.059-0.146-0.117-0.234-0.154
			c-0.003-0.001-0.005-0.004-0.009-0.005c-0.062-0.024-0.123-0.022-0.185-0.033C21.124,0.025,21.066,0,21,0
			c-0.004,0-0.008,0.002-0.012,0.002c-0.02,0-0.035,0.007-0.055,0.008c-0.102,0.007-0.197,0.028-0.289,0.062
			c-0.033,0.013-0.062,0.029-0.094,0.045c-0.076,0.039-0.145,0.086-0.208,0.142c-0.024,0.022-0.052,0.043-0.075,0.069
			c-0.078,0.084-0.146,0.176-0.189,0.283C19.75,0.771,18.823,1,17.5,1s-2.25-0.229-2.578-0.389
			c-0.001-0.002-0.003-0.004-0.004-0.006c-0.045-0.105-0.111-0.197-0.189-0.28C14.706,0.3,14.682,0.28,14.654,0.258
			C14.59,0.2,14.521,0.153,14.443,0.115c-0.031-0.016-0.059-0.032-0.092-0.044C14.241,0.029,14.125,0,14,0s-0.241,0.029-0.352,0.071
			c-0.033,0.012-0.061,0.028-0.092,0.044c-0.077,0.038-0.146,0.085-0.21,0.143C13.319,0.28,13.294,0.3,13.271,0.325
			c-0.077,0.083-0.145,0.175-0.189,0.28c-0.001,0.002-0.003,0.004-0.004,0.006C12.75,0.771,11.824,1,10.5,1
			C9.177,1,8.25,0.771,7.922,0.611c-0.046-0.107-0.113-0.2-0.191-0.285C7.709,0.303,7.685,0.283,7.66,0.262
			C7.594,0.203,7.522,0.154,7.442,0.115C7.414,0.101,7.389,0.086,7.359,0.074c-0.098-0.037-0.201-0.061-0.31-0.067
			c-0.012,0-0.023-0.005-0.034-0.005C7.01,0.002,7.005,0,7,0C6.927,0,6.863,0.027,6.795,0.041C6.739,0.053,6.684,0.05,6.628,0.071
			C6.625,0.072,6.623,0.075,6.62,0.076C6.531,0.113,6.458,0.172,6.385,0.231C6.356,0.254,6.319,0.268,6.294,0.292
			C6.259,0.327,6.24,0.375,6.21,0.415c-0.046,0.063-0.1,0.122-0.13,0.193C6.069,0.633,6.072,0.662,6.063,0.687
			C6.03,0.785,6.002,0.886,6.002,0.992C6.002,0.994,6,0.997,6,1c0,0.264,0.076,0.49,0.198,0.689l1.525,3.813
			C3.15,7.81,0,12.538,0,18c0,7.721,6.28,14,14,14c7.721,0,14-6.279,14-14C28,12.538,24.85,7.81,20.275,5.503z M10.5,3
			c0.69,0,2.397-0.064,3.5-0.626C15.104,2.936,16.811,3,17.5,3c0.357,0,0.988-0.019,1.668-0.112L18.432,4.73
			C17.036,4.264,15.549,4,14,4s-3.036,0.264-4.431,0.73L8.832,2.888C9.511,2.981,10.143,3,10.5,3z M14,30C7.383,30,2,24.617,2,18
			C2,11.384,7.383,6,14,6s12,5.384,12,12C26,24.617,20.617,30,14,30z M14,8C8.485,8,4,12.485,4,18c0,5.514,4.485,10,10,10
			c5.516,0,10-4.486,10-10C24,12.485,19.516,8,14,8z M14,10c2.285,0,4.344,0.968,5.803,2.509c-0.373,0.249-0.666,0.544-0.912,0.807
			C18.443,13.79,18.227,14,17.742,14c-0.483,0-0.7-0.209-1.145-0.684C16.077,12.761,15.363,12,13.993,12
			c-1.459,0-2.168,0.781-2.686,1.353C10.872,13.833,10.698,14,10.242,14c-0.484,0-0.701-0.209-1.146-0.684
			c-0.244-0.261-0.536-0.554-0.904-0.802C9.652,10.971,11.713,10,14,10z M6.997,14.141c0.201,0.109,0.389,0.274,0.64,0.543
			C8.158,15.239,8.871,16,10.242,16c1.365,0,2.049-0.754,2.548-1.305C13.238,14.201,13.442,14,13.993,14
			c0.484,0,0.7,0.209,1.146,0.685C15.659,15.239,16.372,16,17.742,16c1.371,0,2.085-0.761,2.605-1.315
			c0.256-0.273,0.445-0.441,0.65-0.55c0.482,0.869,0.803,1.838,0.932,2.865H6.069C6.198,15.975,6.518,15.008,6.997,14.141z M14,26
			c-2.287,0-4.348-0.971-5.808-2.516c0.368-0.248,0.66-0.541,0.904-0.801C9.541,22.209,9.758,22,10.242,22
			c0.456,0,0.63,0.166,1.065,0.646C11.825,23.219,12.534,24,13.993,24c1.37,0,2.084-0.761,2.604-1.316
			C17.042,22.209,17.259,22,17.742,22c0.484,0,0.701,0.21,1.146,0.686c0.246,0.263,0.541,0.558,0.913,0.807
			C18.344,25.032,16.285,26,14,26z M20.999,21.865c-0.205-0.108-0.396-0.276-0.651-0.549C19.827,20.761,19.113,20,17.742,20
			c-1.37,0-2.083,0.761-2.604,1.316C14.693,21.791,14.478,22,13.993,22c-0.551,0-0.755-0.201-1.203-0.695
			C12.291,20.754,11.607,20,10.242,20c-1.371,0-2.084,0.761-2.605,1.316c-0.251,0.269-0.438,0.434-0.64,0.543
			C6.518,20.992,6.198,20.025,6.069,19H21.93C21.802,20.027,21.48,20.996,20.999,21.865z"/>
	</g>
</g>
</svg>
