<?xml version="1.0" encoding="iso-8859-1"?>
<!-- Generator: Adobe Illustrator 16.0.4, SVG Export Plug-In . SVG Version: 6.00 Build 0)  -->
<!DOCTYPE svg PUBLIC "-//W3C//DTD SVG 1.1//EN" "http://www.w3.org/Graphics/SVG/1.1/DTD/svg11.dtd">
<svg version="1.1" id="Capa_1" xmlns="http://www.w3.org/2000/svg" xmlns:xlink="http://www.w3.org/1999/xlink" x="0px" y="0px"
	 width="32px" height="32px" viewBox="0 0 32 32" style="enable-background:new 0 0 32 32;" xml:space="preserve">
<g id="Badge_x5F_4">
	<g>
		<path d="M15.618,10.077c-0.122,0.051-0.233,0.124-0.325,0.216l-1,1c-0.249,0.248-0.348,0.609-0.263,0.949l0.452,1.807
			C14.324,14.022,14.165,14,14,14c-1.654,0-3,1.346-3,3c0,0.553,0.448,1,1,1s1-0.447,1-1c0-0.551,0.449-1,1-1s1,0.449,1,1
			c0,0.552-0.449,1-1,1c-0.552,0-1,0.448-1,1c0,0.553,0.448,1,1,1c0.353,0,0.686-0.072,1-0.184V21c0,0.553,0.448,1,1,1s1-0.447,1-1
			v-1.186C17.314,19.928,17.646,20,18,20c0.552,0,1-0.447,1-1c0-0.552-0.448-1-1-1c-0.551,0-1-0.448-1-1c0-0.551,0.449-1,1-1
			s1,0.449,1,1c0,0.553,0.448,1,1,1s1-0.447,1-1c0-1.654-1.346-3-3-3c-0.165,0-0.324,0.022-0.48,0.049l0.451-1.807
			c0.086-0.34-0.015-0.701-0.263-0.949l-1-1c-0.092-0.092-0.203-0.165-0.325-0.216C16.138,9.977,15.862,9.977,15.618,10.077z
			 M29.745,7.852c-0.042-0.093-0.088-0.181-0.154-0.254C26.766,3.047,21.738,0,16,0C10.262,0,5.234,3.047,2.41,7.598
			C2.344,7.671,2.298,7.759,2.255,7.852C0.833,10.242,0,13.022,0,16c0,1.465,0.214,2.877,0.585,4.227
			c0.013,0.06,0.021,0.115,0.044,0.17c1.341,4.684,4.756,8.496,9.195,10.361c0.021,0.008,0.041,0.016,0.062,0.021
			C11.771,31.562,13.835,32,16,32s4.229-0.438,6.113-1.221c0.021-0.006,0.043-0.014,0.062-0.021
			c4.439-1.863,7.854-5.679,9.195-10.361c0.023-0.055,0.031-0.11,0.044-0.17C31.786,18.877,32,17.465,32,16
			C32,13.022,31.167,10.241,29.745,7.852z M28.387,9.496c0.283,0.537,0.523,1.097,0.736,1.672c-1.111,0.219-1.835,0.617-2.494,0.98
			c-0.643,0.354-1.219,0.666-2.176,0.791c-0.25-0.688-0.573-1.341-0.975-1.939h0.021c2.103,0,3.162-0.584,4.097-1.101
			C27.855,9.756,28.113,9.62,28.387,9.496z M16,2c3.212,0,6.166,1.099,8.531,2.925C24.229,4.969,23.9,5,23.498,5
			c-1.625,0-2.391-0.408-3.277-0.883C19.238,3.594,18.125,3,16,3s-3.238,0.594-4.22,1.117C10.893,4.592,10.127,5,8.502,5
			C8.1,5,7.771,4.969,7.469,4.925C9.834,3.099,12.788,2,16,2z M5.713,6.536C6.38,6.793,7.247,7,8.502,7
			c2.125,0,3.238-0.594,4.22-1.118C13.609,5.409,14.375,5,16,5s2.391,0.409,3.277,0.882C20.26,6.406,21.373,7,23.498,7
			c1.255,0,2.122-0.207,2.789-0.464c0.365,0.397,0.708,0.814,1.027,1.252c-0.246,0.12-0.475,0.243-0.687,0.36
			C25.8,8.605,25.085,9,23.498,9c-1.268,0-1.989-0.252-2.577-0.526C19.505,7.545,17.816,7,16,7c-1.816,0-3.505,0.545-4.921,1.474
			C10.491,8.748,9.77,9,8.502,9C6.915,9,6.2,8.605,5.372,8.148C5.16,8.031,4.93,7.908,4.686,7.788
			C5.004,7.351,5.347,6.934,5.713,6.536z M23,16c0,3.859-3.141,7-7,7c-3.86,0-7-3.141-7-7c0-3.859,3.14-7,7-7
			C19.859,9,23,12.141,23,16z M3.613,9.496c0.273,0.124,0.531,0.26,0.792,0.403C5.34,10.416,6.399,11,8.502,11h0.021
			c-0.402,0.599-0.725,1.251-0.975,1.939c-0.958-0.125-1.535-0.437-2.176-0.791c-0.658-0.363-1.383-0.762-2.494-0.98
			C3.09,10.593,3.33,10.033,3.613,9.496z M2.306,13.099c0.91,0.15,1.474,0.456,2.099,0.802c0.692,0.382,1.463,0.8,2.671,0.991
			C7.03,15.256,7,15.624,7,16c0,0.287,0.017,0.57,0.043,0.852c-0.672-0.156-1.151-0.415-1.672-0.702
			c-0.812-0.448-1.724-0.941-3.323-1.096C2.093,14.389,2.172,13.734,2.306,13.099z M2.054,17.062
			c1.062,0.131,1.674,0.463,2.351,0.838c0.772,0.426,1.636,0.899,3.103,1.051c0.254,0.729,0.592,1.418,1.015,2.048
			C8.515,20.999,8.509,21,8.502,21c-1.588,0-2.303-0.395-3.131-0.852c-0.755-0.418-1.602-0.879-3.018-1.064
			C2.205,18.427,2.106,17.752,2.054,17.062z M4.262,23.604c-0.477-0.732-0.888-1.513-1.223-2.332
			c0.518,0.164,0.928,0.386,1.366,0.627C5.339,22.415,6.399,23,8.502,23c0.604,0,1.145-0.064,1.663-0.162
			c0.543,0.465,1.144,0.863,1.788,1.189c-0.057,0.029-0.116,0.061-0.172,0.09C10.893,24.592,10.127,25,8.502,25
			c-1.588,0-2.303-0.395-3.131-0.852C5.049,23.971,4.676,23.781,4.262,23.604z M16,30c-1,0-1.973-0.109-2.914-0.311
			C13.838,29.305,14.6,29,16,29c1.4,0,2.162,0.305,2.914,0.689C17.973,29.891,17,30,16,30z M21.712,28.77
			c-0.558-0.162-1-0.39-1.491-0.651C19.238,27.594,18.125,27,16,27s-3.238,0.594-4.22,1.117c-0.492,0.263-0.935,0.49-1.492,0.65
			c-1.09-0.488-2.108-1.11-3.03-1.851C7.631,26.968,8.037,27,8.502,27c2.125,0,3.238-0.594,4.22-1.118
			C13.609,25.408,14.375,25,16,25s2.391,0.408,3.277,0.882C20.26,26.406,21.373,27,23.498,27c0.465,0,0.871-0.032,1.244-0.082
			C23.82,27.657,22.802,28.279,21.712,28.77z M27.738,23.604c-0.414,0.178-0.787,0.367-1.109,0.545
			C25.801,24.605,25.086,25,23.498,25c-1.625,0-2.391-0.408-3.277-0.883c-0.057-0.029-0.115-0.061-0.173-0.09
			c0.644-0.326,1.244-0.726,1.788-1.189C22.354,22.936,22.895,23,23.498,23c2.104,0,3.163-0.585,4.098-1.102
			c0.438-0.241,0.848-0.463,1.365-0.627C28.626,22.092,28.215,22.871,27.738,23.604z M29.646,19.084
			c-1.416,0.186-2.263,0.646-3.019,1.064C25.801,20.605,25.086,21,23.498,21c-0.007,0-0.014-0.001-0.02-0.001
			c0.422-0.63,0.76-1.319,1.015-2.048c1.466-0.15,2.331-0.625,3.103-1.051c0.678-0.375,1.288-0.707,2.352-0.838
			C29.895,17.752,29.795,18.427,29.646,19.084z M26.629,16.149c-0.521,0.287-1,0.546-1.672,0.701C24.982,16.57,25,16.287,25,16
			c0-0.376-0.029-0.744-0.076-1.108c1.208-0.191,1.979-0.609,2.672-0.991c0.625-0.346,1.188-0.651,2.098-0.802
			c0.135,0.636,0.214,1.29,0.259,1.955C28.354,15.208,27.439,15.701,26.629,16.149z"/>
	</g>
</g>
</svg>
