<?xml version="1.0" encoding="iso-8859-1"?>
<!-- Generator: Adobe Illustrator 16.0.4, SVG Export Plug-In . SVG Version: 6.00 Build 0)  -->
<!DOCTYPE svg PUBLIC "-//W3C//DTD SVG 1.1//EN" "http://www.w3.org/Graphics/SVG/1.1/DTD/svg11.dtd">
<svg version="1.1" id="Capa_1" xmlns="http://www.w3.org/2000/svg" xmlns:xlink="http://www.w3.org/1999/xlink" x="0px" y="0px"
	 width="32px" height="32px" viewBox="0 0 32 32" style="enable-background:new 0 0 32 32;" xml:space="preserve">
<g id="Cloud_x5F_Sun">
	<g>
		<path d="M14,17c-1.654,0-3-1.346-3-3c0-0.552-0.448-1-1-1s-1,0.448-1,1c0,2.757,2.243,5,5,5c0.552,0,1-0.448,1-1S14.552,17,14,17z
			 M25.5,21.5c0,2.48-2.02,4.5-4.5,4.5c-0.552,0-1,0.447-1,1c0,0.552,0.448,1,1,1c3.584,0,6.5-2.916,6.5-6.5c0-0.553-0.448-1-1-1
			S25.5,20.947,25.5,21.5z M28.809,13.096l-0.945-0.947c0.42-0.649,0.707-1.378,0.841-2.148H31c0.552,0,1-0.447,1-1
			c0-0.553-0.448-1-1-1h-2.292c-0.149-0.855-0.483-1.646-0.965-2.328l1.065-1.062c0.391-0.391,0.392-1.024,0-1.415
			c-0.39-0.39-1.022-0.392-1.414-0.001l-1.067,1.064C25.645,3.776,24.855,3.441,24,3.293V1c0-0.553-0.448-1-1-1s-1,0.447-1,1v2.295
			c-0.773,0.136-1.498,0.431-2.143,0.849l-0.948-0.95c-0.39-0.391-1.024-0.393-1.414-0.002c-0.392,0.391-0.392,1.023-0.002,1.414
			l0.888,0.89c-0.115,0.151-0.212,0.316-0.312,0.479C16.838,5.348,15.452,5,14,5c-4.962,0-9,4.038-9,9
			c0,0.838,0.114,1.66,0.34,2.456C2.188,17.566,0,20.577,0,24c0,4.411,3.589,8,8,8h14c0.096,0,0.189-0.016,0.277-0.041
			C27.747,31.559,32,27.006,32,21.5c0-2.868-1.131-5.447-2.973-7.334C29.169,13.809,29.098,13.386,28.809,13.096z M23,5.2
			c2.096,0,3.801,1.704,3.801,3.8c0,1.081-0.461,2.097-1.25,2.812c-0.953-0.393-1.976-0.658-3.054-0.758
			c-0.549-1.59-1.519-2.955-2.763-3.985C20.41,5.932,21.645,5.2,23,5.2z M30,21.5c0,4.518-3.537,8.24-8.052,8.477
			c-0.06,0.002-0.117,0.012-0.173,0.023H8c-3.309,0-6-2.691-6-6c0-2.857,2.032-5.332,4.832-5.884c0.296-0.06,0.549-0.247,0.69-0.515
			c0.141-0.267,0.154-0.582,0.036-0.858C7.188,15.873,7,14.949,7,14c0-3.86,3.14-7,7-7c3.193,0,5.979,2.163,6.771,5.261
			c0.111,0.433,0.498,0.739,0.944,0.751c1.249,0.031,2.419,0.33,3.472,0.832c0.028,0.016,0.058,0.029,0.088,0.043
			C28.089,15.267,30,18.141,30,21.5z"/>
	</g>
</g>
</svg>
