<?xml version="1.0" encoding="iso-8859-1"?>
<!-- Generator: Adobe Illustrator 16.0.4, SVG Export Plug-In . SVG Version: 6.00 Build 0)  -->
<!DOCTYPE svg PUBLIC "-//W3C//DTD SVG 1.1//EN" "http://www.w3.org/Graphics/SVG/1.1/DTD/svg11.dtd">
<svg version="1.1" id="Capa_1" xmlns="http://www.w3.org/2000/svg" xmlns:xlink="http://www.w3.org/1999/xlink" x="0px" y="0px"
	 width="24px" height="32px" viewBox="0 0 24 32" style="enable-background:new 0 0 24 32;" xml:space="preserve">
<g id="Paper_x5F_Glass">
	<g>
		<path d="M23.938,5.688l0.012-0.004l-0.996-2.988C22.688,1.793,21.023,0,12,0C2.977,0,1.312,1.793,1.048,2.695L0.052,5.684
			l0.012,0.004C0.029,5.787,0,5.889,0,6c0,1.026,0.805,1.805,2.033,2.393l1.972,20.703c0.003,0.026,0.018,0.049,0.021,0.075
			C4.312,31.912,11.198,32,12,32s7.688-0.088,7.975-2.829c0.004-0.026,0.019-0.049,0.021-0.075l1.972-20.703
			C23.195,7.805,24,7.026,24,6C24,5.89,23.971,5.787,23.938,5.688z M12,2c4.432,0,7.312,0.547,8.516,1C19.312,3.453,16.432,4,12,4
			C7.568,4,4.687,3.453,3.485,3C4.687,2.547,7.568,2,12,2z M18.009,28.861C17.609,29.271,15.502,30,12,30s-5.61-0.729-6.009-1.139
			l-0.54-5.668C7.778,23.938,11.06,24,12,24c0.939,0,4.221-0.061,6.549-0.803L18.009,28.861z M19.518,13.033
			C18.425,13.468,15.857,14,12,14c-3.857,0-6.425-0.532-7.517-0.967L4.111,9.124C6.593,9.772,9.703,10,12,10
			s5.407-0.228,7.889-0.876L19.518,13.033z M12,8C6.106,8,2.467,6.737,2.036,6.053l0.46-1.379C3.919,5.373,6.669,6,12,6
			s8.081-0.627,9.504-1.326l0.453,1.358C21.471,6.759,17.844,8,12,8z"/>
	</g>
</g>
</svg>
