<?xml version="1.0" encoding="iso-8859-1"?>
<!-- Generator: Adobe Illustrator 16.0.4, SVG Export Plug-In . SVG Version: 6.00 Build 0)  -->
<!DOCTYPE svg PUBLIC "-//W3C//DTD SVG 1.1//EN" "http://www.w3.org/Graphics/SVG/1.1/DTD/svg11.dtd">
<svg version="1.1" id="Capa_1" xmlns="http://www.w3.org/2000/svg" xmlns:xlink="http://www.w3.org/1999/xlink" x="0px" y="0px"
	 width="31.979px" height="31.979px" viewBox="0 0 31.979 31.979" style="enable-background:new 0 0 31.979 31.979;"
	 xml:space="preserve">
<g id="Tools">
	<g>
		<path d="M31.105,18.818c-1.429-0.186-2.505-1.4-2.505-2.829s1.076-2.646,2.505-2.829c0.284-0.037,0.538-0.193,0.699-0.43
			c0.16-0.237,0.213-0.531,0.142-0.81c-0.388-1.526-0.992-2.986-1.798-4.341c-0.146-0.246-0.392-0.418-0.672-0.472
			c-0.283-0.053-0.572,0.016-0.8,0.19c-1.103,0.853-2.784,0.757-3.771-0.229c-1.012-1.01-1.11-2.631-0.23-3.771
			c0.176-0.226,0.245-0.517,0.191-0.798s-0.225-0.525-0.471-0.673c-1.352-0.804-2.812-1.408-4.341-1.798
			c-0.279-0.07-0.572-0.02-0.81,0.142s-0.394,0.416-0.431,0.699c-0.185,1.428-1.4,2.504-2.829,2.504
			c-1.43,0-2.646-1.076-2.828-2.503c-0.037-0.284-0.193-0.539-0.43-0.7c-0.237-0.16-0.53-0.211-0.81-0.142
			c-1.527,0.391-2.988,0.996-4.34,1.8C7.333,1.975,7.162,2.22,7.108,2.501C7.054,2.782,7.125,3.074,7.3,3.299
			C8.18,4.439,8.082,6.06,7.071,7.07C6.086,8.055,4.403,8.153,3.299,7.3C3.072,7.125,2.782,7.058,2.5,7.109
			C2.219,7.163,1.975,7.334,1.828,7.581c-0.807,1.355-1.411,2.816-1.798,4.342c-0.07,0.277-0.018,0.571,0.143,0.809
			c0.161,0.235,0.416,0.393,0.699,0.43c1.428,0.185,2.504,1.4,2.504,2.829S2.3,18.633,0.872,18.818
			c-0.283,0.036-0.538,0.191-0.699,0.429c-0.159,0.237-0.213,0.531-0.143,0.81c0.387,1.525,0.992,2.986,1.798,4.342
			c0.146,0.246,0.391,0.418,0.672,0.472c0.28,0.051,0.572-0.017,0.798-0.189c1.108-0.854,2.789-0.756,3.772,0.229
			c1.011,1.011,1.109,2.632,0.229,3.771c-0.175,0.227-0.243,0.518-0.189,0.799c0.054,0.279,0.226,0.524,0.471,0.672
			c1.353,0.804,2.812,1.408,4.342,1.798c0.081,0.021,0.164,0.03,0.246,0.03c0.198,0,0.396-0.06,0.562-0.173
			c0.235-0.161,0.393-0.416,0.43-0.699c0.183-1.428,1.398-2.504,2.828-2.504c1.429,0,2.646,1.076,2.829,2.504
			c0.037,0.284,0.192,0.539,0.431,0.699c0.236,0.161,0.529,0.213,0.81,0.143c1.527-0.39,2.987-0.994,4.34-1.798
			c0.245-0.146,0.417-0.392,0.471-0.672c0.054-0.281-0.016-0.571-0.189-0.798c-0.88-1.142-0.779-2.763,0.229-3.771
			c0.986-0.985,2.667-1.081,3.771-0.229c0.226,0.175,0.517,0.243,0.798,0.189c0.28-0.054,0.524-0.226,0.672-0.472
			c0.806-1.354,1.41-2.814,1.798-4.342c0.071-0.277,0.02-0.571-0.142-0.809C31.644,19.01,31.39,18.854,31.105,18.818z
			 M28.908,22.502c-1.802-0.803-4.017-0.409-5.415,0.991c-1.441,1.441-1.795,3.611-0.992,5.415c-0.639,0.322-1.301,0.597-1.98,0.82
			c-0.707-1.844-2.491-3.128-4.531-3.128s-3.824,1.284-4.53,3.128c-0.681-0.225-1.344-0.498-1.981-0.82
			c0.805-1.803,0.451-3.974-0.991-5.416c-0.914-0.914-2.129-1.417-3.422-1.417c-0.688,0-1.369,0.148-1.994,0.427
			c-0.323-0.64-0.598-1.303-0.821-1.982c1.844-0.706,3.129-2.491,3.129-4.53c0-2.04-1.285-3.824-3.129-4.531
			c0.225-0.68,0.498-1.343,0.821-1.981c0.625,0.278,1.308,0.428,1.995,0.428c1.293,0,2.508-0.504,3.422-1.418
			c1.443-1.442,1.796-3.613,0.99-5.417c0.639-0.322,1.301-0.596,1.981-0.82c0.706,1.844,2.49,3.128,4.53,3.128
			s3.824-1.284,4.531-3.128c0.681,0.226,1.343,0.498,1.98,0.82c-0.805,1.804-0.451,3.975,0.992,5.417
			c0.914,0.914,2.129,1.417,3.421,1.417c0.688,0,1.369-0.148,1.994-0.427c0.323,0.64,0.598,1.302,0.821,1.981
			c-1.845,0.707-3.129,2.491-3.129,4.531c0,2.039,1.284,3.824,3.129,4.53C29.506,21.2,29.231,21.863,28.908,22.502z M15.988,7.311
			c-4.784,0-8.677,3.893-8.677,8.678c0,4.784,3.893,8.677,8.677,8.677s8.677-3.893,8.677-8.677
			C24.665,11.204,20.772,7.311,15.988,7.311z M15.988,22.666c-3.682,0-6.677-2.995-6.677-6.677s2.995-6.678,6.677-6.678
			s6.677,2.996,6.677,6.678S19.67,22.666,15.988,22.666z M15.988,11.247c-2.614,0-4.741,2.128-4.741,4.742s2.127,4.741,4.741,4.741
			s4.742-2.127,4.742-4.741S18.603,11.247,15.988,11.247z M15.988,17.86c-1.033,0-1.871-0.838-1.871-1.871s0.838-1.871,1.871-1.871
			s1.871,0.838,1.871,1.871S17.021,17.86,15.988,17.86z"/>
	</g>
</g>
</svg>
