<?xml version="1.0" encoding="iso-8859-1"?>
<!-- Generator: Adobe Illustrator 16.0.4, SVG Export Plug-In . SVG Version: 6.00 Build 0)  -->
<!DOCTYPE svg PUBLIC "-//W3C//DTD SVG 1.1//EN" "http://www.w3.org/Graphics/SVG/1.1/DTD/svg11.dtd">
<svg version="1.1" id="Capa_1" xmlns="http://www.w3.org/2000/svg" xmlns:xlink="http://www.w3.org/1999/xlink" x="0px" y="0px"
	 width="32px" height="19px" viewBox="0 0 32 19" style="enable-background:new 0 0 32 19;" xml:space="preserve">
<g id="Link_x5F_1">
	<g>
		<path d="M18.874,7.947c-0.089-0.545-0.597-0.919-1.149-0.824C17.18,7.212,16.811,7.727,16.9,8.271C16.966,8.676,17,9.089,17,9.5
			c0,4.136-3.364,7.5-7.5,7.5S2,13.636,2,9.5S5.364,2,9.5,2c1.178,0,2.307,0.266,3.354,0.789c0.496,0.246,1.095,0.047,1.342-0.447
			C14.442,1.848,14.242,1.247,13.748,1C12.421,0.337,10.992,0,9.5,0C4.262,0,0,4.262,0,9.5C0,14.738,4.262,19,9.5,19
			S19,14.738,19,9.5C19,8.981,18.958,8.459,18.874,7.947z M22.5,0C17.262,0,13,4.262,13,9.5c0,0.514,0.041,1.025,0.123,1.525
			c0.088,0.545,0.6,0.918,1.147,0.826c0.545-0.088,0.915-0.603,0.826-1.146C15.032,10.312,15,9.906,15,9.5C15,5.364,18.363,2,22.5,2
			S30,5.364,30,9.5S26.637,17,22.5,17c-1.18,0-2.307-0.266-3.354-0.789c-0.494-0.244-1.095-0.047-1.342,0.447
			c-0.248,0.492-0.047,1.095,0.446,1.342c1.327,0.663,2.756,1,4.249,1c5.238,0,9.5-4.262,9.5-9.5C32,4.262,27.738,0,22.5,0z"/>
	</g>
</g>
</svg>
