<?xml version="1.0" encoding="iso-8859-1"?>
<!-- Generator: Adobe Illustrator 16.0.4, SVG Export Plug-In . SVG Version: 6.00 Build 0)  -->
<!DOCTYPE svg PUBLIC "-//W3C//DTD SVG 1.1//EN" "http://www.w3.org/Graphics/SVG/1.1/DTD/svg11.dtd">
<svg version="1.1" id="Capa_1" xmlns="http://www.w3.org/2000/svg" xmlns:xlink="http://www.w3.org/1999/xlink" x="0px" y="0px"
	 width="32.012px" height="32px" viewBox="0 0 32.012 32" style="enable-background:new 0 0 32.012 32;" xml:space="preserve">
<g id="Diamond">
	<g>
		<path d="M31.977,11.835c0-0.004-0.001-0.007-0.002-0.01c-0.039-0.212-0.124-0.407-0.272-0.55L23.8,0.411
			c-0.057-0.078-0.127-0.144-0.202-0.201c-0.018-0.014-0.036-0.024-0.055-0.036c-0.101-0.066-0.206-0.12-0.323-0.147
			c0,0-0.001-0.001-0.002-0.001c-0.002-0.001-0.005,0-0.008,0c-0.071-0.017-0.146-0.027-0.219-0.027h-14
			c-0.075,0-0.148,0.01-0.221,0.026c-0.003,0-0.005-0.001-0.008,0c-0.001,0-0.001,0.001-0.002,0.001
			C8.645,0.054,8.538,0.107,8.438,0.174C8.42,0.187,8.401,0.196,8.384,0.21C8.309,0.269,8.238,0.333,8.183,0.411l-8,11
			c-0.019,0.023-0.025,0.052-0.041,0.076c-0.016,0.026-0.037,0.048-0.051,0.075c-0.007,0.016-0.009,0.032-0.016,0.049
			c-0.021,0.045-0.032,0.09-0.044,0.137c-0.012,0.043-0.022,0.084-0.028,0.127c-0.006,0.048-0.004,0.095-0.004,0.142
			C0,12.062,0.001,12.105,0.007,12.148c0.007,0.046,0.021,0.09,0.033,0.135c0.014,0.044,0.025,0.088,0.045,0.13
			c0.007,0.014,0.008,0.028,0.015,0.041c0.017,0.031,0.039,0.055,0.06,0.083c0.018,0.027,0.027,0.058,0.048,0.083l15,19
			c0.016,0.02,0.041,0.027,0.058,0.046c0.04,0.045,0.078,0.093,0.126,0.13c0.025,0.02,0.058,0.028,0.083,0.045
			c0.009,0.006,0.02,0.01,0.026,0.016c0.034,0.02,0.063,0.039,0.1,0.055c0.04,0.018,0.08,0.031,0.123,0.044
			c0.017,0.005,0.026,0.017,0.042,0.021C15.839,31.992,15.913,32,15.987,32c0.003,0,0.004,0.001,0.005,0.001h0.002
			c0.002,0,0.003-0.001,0.003-0.001c0.074,0,0.148-0.009,0.224-0.024c0.016-0.004,0.027-0.016,0.042-0.021
			c0.043-0.013,0.083-0.026,0.122-0.044c0.036-0.016,0.066-0.035,0.1-0.055c0.011-0.006,0.019-0.01,0.027-0.016
			c0.026-0.017,0.057-0.025,0.082-0.045c0.049-0.037,0.086-0.085,0.127-0.13c0.017-0.019,0.042-0.026,0.058-0.046l14.918-18.896
			c0.194-0.183,0.317-0.437,0.317-0.724C32.011,11.94,31.986,11.891,31.977,11.835z M21.73,1.999l-2.1,9h-7.28l-2.1-9H21.73z
			 M8.514,3.355l1.783,7.644H2.955L8.514,3.355z M3.055,12.999h7.709l3.234,13.861L3.055,12.999z M15.991,26.599l-3.175-13.6h6.348
			L15.991,26.599z M17.983,26.86l3.235-13.861h7.709L17.983,26.86z M21.685,10.999l1.783-7.644l5.558,7.644H21.685z"/>
	</g>
</g>
</svg>
