<?xml version="1.0" encoding="iso-8859-1"?>
<!-- Generator: Adobe Illustrator 16.0.4, SVG Export Plug-In . SVG Version: 6.00 Build 0)  -->
<!DOCTYPE svg PUBLIC "-//W3C//DTD SVG 1.1//EN" "http://www.w3.org/Graphics/SVG/1.1/DTD/svg11.dtd">
<svg version="1.1" id="Capa_1" xmlns="http://www.w3.org/2000/svg" xmlns:xlink="http://www.w3.org/1999/xlink" x="0px" y="0px"
	 width="14.998px" height="32px" viewBox="0 0 14.998 32" style="enable-background:new 0 0 14.998 32;" xml:space="preserve">
<g id="Dollar">
	<g>
		<path d="M14.435,19.277c-0.207-0.569-0.537-1.17-1-1.812c-0.24-0.312-0.498-0.631-0.773-0.954c-0.299-0.35-0.648-0.712-1.02-1.054
			c-0.369-0.365-0.754-0.71-1.143-1.024c-0.318-0.258-0.615-0.494-0.973-0.777c-0.652-0.524-1.193-0.982-1.627-1.372
			C7.521,11.94,7.214,11.617,6.973,11.3c-0.244-0.302-0.402-0.559-0.537-0.896c-0.058-0.114-0.083-0.232-0.083-0.383
			c0-0.122,0.022-0.232,0.066-0.327C6.506,9.506,6.629,9.37,6.826,9.245c0.375-0.243,0.771-0.246,1.091-0.118
			c0.225,0.089,0.409,0.222,0.493,0.317c0.135,0.205,0.195,0.383,0.195,0.577c0,0.83,0.332,1.579,0.965,2.165
			c1.213,1.121,3.178,1.124,4.395-0.002c0.631-0.585,0.963-1.333,0.963-2.163c0-0.973-0.191-1.907-0.592-2.82
			c-0.617-1.249-1.527-2.265-2.707-3.021c-0.951-0.602-2.002-0.97-3.133-1.11V1c0-0.552-0.447-1-1-1c-0.553,0-1,0.448-1,1v2.063
			c-0.67,0.08-1.304,0.236-1.88,0.478C3.323,4.036,2.21,4.871,1.271,6.072c-0.39,0.565-0.7,1.183-0.923,1.831
			c-0.232,0.671-0.35,1.384-0.35,2.118c0,0.904,0.198,1.837,0.592,2.774c0.458,1.078,1.198,2.131,2.167,3.094
			c0.421,0.462,0.885,0.905,1.383,1.322l1.34,1.113c0.679,0.529,1.202,0.973,1.604,1.355c0.385,0.364,0.721,0.719,0.959,1.006
			c0.225,0.285,0.381,0.543,0.512,0.873c0.059,0.114,0.084,0.241,0.084,0.39c0,0.139-0.023,0.261-0.059,0.341
			c-0.088,0.186-0.227,0.338-0.41,0.463c-0.186,0.119-0.382,0.172-0.639,0.172c-0.179,0-0.35-0.027-0.467-0.07
			c-0.212-0.088-0.392-0.224-0.482-0.332c-0.175-0.263-0.195-0.435-0.195-0.541c0-0.85-0.333-1.608-0.966-2.197
			c-1.211-1.12-3.176-1.124-4.399,0.008c-0.626,0.588-0.957,1.346-0.957,2.189c0,0.957,0.192,1.879,0.581,2.765
			c0.595,1.264,1.511,2.288,2.713,3.041c0.968,0.618,2.021,0.998,3.139,1.144V31c0,0.553,0.447,1,1,1s1-0.447,1-1v-2.07
			c0.637-0.082,1.279-0.24,1.932-0.49c1.326-0.563,2.412-1.404,3.23-2.502c0.889-1.198,1.338-2.529,1.338-3.957
			C14.997,21.077,14.802,20.152,14.435,19.277z M12.052,24.745c-0.602,0.807-1.41,1.431-2.371,1.84
			c-1.86,0.711-3.718,0.492-5.252-0.489c-0.881-0.551-1.545-1.293-1.963-2.18c-0.267-0.605-0.402-1.258-0.402-1.936
			c0-0.295,0.101-0.521,0.321-0.729c0.24-0.223,0.508-0.326,0.841-0.326c0.332,0,0.598,0.104,0.835,0.321
			c0.225,0.211,0.325,0.437,0.325,0.731c0,0.565,0.178,1.121,0.582,1.721c0.355,0.443,0.802,0.779,1.366,1.015
			c0.959,0.353,2.062,0.267,2.939-0.295c0.494-0.338,0.867-0.763,1.125-1.297c0.158-0.366,0.24-0.761,0.24-1.175
			c0-0.454-0.098-0.883-0.256-1.193c-0.17-0.438-0.422-0.865-0.785-1.324C9.29,19.059,8.909,18.654,8.46,18.23
			c-0.447-0.428-1.021-0.912-1.728-1.463l-1.314-1.093c-0.426-0.357-0.825-0.739-1.219-1.169c-0.818-0.815-1.414-1.653-1.77-2.489
			c-0.285-0.686-0.431-1.358-0.431-1.996c0-0.511,0.081-1.002,0.242-1.464c0.164-0.48,0.393-0.935,0.643-1.301
			C3.56,6.394,4.382,5.773,5.361,5.398C5.99,5.134,6.697,5,7.461,5c1.143,0,2.186,0.293,3.094,0.866
			c0.865,0.555,1.533,1.302,1.967,2.177c0.27,0.617,0.406,1.281,0.406,1.978c0,0.274-0.1,0.489-0.322,0.696
			c-0.48,0.445-1.201,0.44-1.676,0.002c-0.225-0.209-0.324-0.424-0.324-0.698c0-0.585-0.178-1.15-0.584-1.757
			C9.665,7.822,9.206,7.486,8.657,7.268C7.744,6.903,6.644,6.98,5.748,7.561c-0.51,0.323-0.894,0.756-1.143,1.291
			c-0.167,0.363-0.252,0.756-0.252,1.169c0,0.458,0.099,0.889,0.255,1.189c0.171,0.444,0.437,0.885,0.794,1.325
			c0.301,0.395,0.678,0.796,1.155,1.23c0.459,0.414,1.03,0.898,1.755,1.479c0.322,0.255,0.613,0.486,0.928,0.74
			c0.338,0.274,0.674,0.575,1.021,0.917c0.334,0.312,0.629,0.615,0.879,0.908c0.254,0.297,0.49,0.588,0.691,0.849
			c0.336,0.467,0.578,0.903,0.738,1.348c0.283,0.673,0.428,1.338,0.428,1.976C12.997,22.969,12.679,23.898,12.052,24.745z"/>
	</g>
</g>
</svg>
