<?xml version="1.0" encoding="iso-8859-1"?>
<!-- Generator: Adobe Illustrator 16.0.4, SVG Export Plug-In . SVG Version: 6.00 Build 0)  -->
<!DOCTYPE svg PUBLIC "-//W3C//DTD SVG 1.1//EN" "http://www.w3.org/Graphics/SVG/1.1/DTD/svg11.dtd">
<svg version="1.1" id="Capa_1" xmlns="http://www.w3.org/2000/svg" xmlns:xlink="http://www.w3.org/1999/xlink" x="0px" y="0px"
	 width="16px" height="32px" viewBox="0 0 16 32" style="enable-background:new 0 0 16 32;" xml:space="preserve">
<g id="Ribbon">
	<g>
		<path d="M13.25,0H2.75C1.233,0,0,1.289,0,2.875V29c0,1.654,1.346,3,3,3s3-1.346,3-3c0-1.104,0.897-2,2-2c1.104,0,2,0.896,2,2
			c0,1.654,1.346,3,3,3s3-1.346,3-3V2.875C16,1.289,14.768,0,13.25,0z M14,29c0,0.552-0.448,1-1,1s-1-0.448-1-1c0-2.205-1.794-4-4-4
			s-4,1.795-4,4c0,0.552-0.448,1-1,1s-1-0.448-1-1V2.875C2,2.393,2.336,2,2.75,2h10.5C13.664,2,14,2.393,14,2.875V29z M8,4
			C5.792,4,4,5.791,4,8s1.792,4,4,4s4-1.791,4-4S10.208,4,8,4z M8,10c-1.103,0-2-0.897-2-2s0.897-2,2-2c1.104,0,2,0.897,2,2
			S9.104,10,8,10z"/>
	</g>
</g>
</svg>
