<?xml version="1.0" encoding="iso-8859-1"?>
<!-- Generator: Adobe Illustrator 16.0.4, SVG Export Plug-In . SVG Version: 6.00 Build 0)  -->
<!DOCTYPE svg PUBLIC "-//W3C//DTD SVG 1.1//EN" "http://www.w3.org/Graphics/SVG/1.1/DTD/svg11.dtd">
<svg version="1.1" id="Capa_1" xmlns="http://www.w3.org/2000/svg" xmlns:xlink="http://www.w3.org/1999/xlink" x="0px" y="0px"
	 width="24px" height="32.008px" viewBox="0 0 24 32.008" style="enable-background:new 0 0 24 32.008;" xml:space="preserve">
<g id="Music_x5F_Note">
	<g>
		<path d="M23.602,0.201c-0.248-0.188-0.572-0.25-0.877-0.162l-14,4.015C8.296,4.176,8,4.567,8,5.015v18.02
			c-0.838-0.636-1.87-1.025-3-1.025c-2.757,0-5,2.243-5,5s2.243,5,5,5s5-2.243,5-5V9.752l12-3.44v12.722
			c-0.838-0.636-1.87-1.025-3-1.025c-2.757,0-5,2.243-5,5s2.243,5,5,5s5-2.243,5-5V1C24,0.687,23.854,0.391,23.602,0.201z M5,30.008
			c-1.654,0-3-1.346-3-3s1.346-3,3-3s3,1.346,3,3S6.654,30.008,5,30.008z M19,26.008c-1.654,0-3-1.346-3-3s1.346-3,3-3s3,1.346,3,3
			S20.654,26.008,19,26.008z M22,4.23L10,7.672V5.769l12-3.441V4.23z"/>
	</g>
</g>
</svg>
