<?xml version="1.0" encoding="iso-8859-1"?>
<!-- Generator: Adobe Illustrator 16.0.4, SVG Export Plug-In . SVG Version: 6.00 Build 0)  -->
<!DOCTYPE svg PUBLIC "-//W3C//DTD SVG 1.1//EN" "http://www.w3.org/Graphics/SVG/1.1/DTD/svg11.dtd">
<svg version="1.1" id="Capa_1" xmlns="http://www.w3.org/2000/svg" xmlns:xlink="http://www.w3.org/1999/xlink" x="0px" y="0px"
	 width="32px" height="38.5px" viewBox="0 0 32 38.5" style="enable-background:new 0 0 32 38.5;" xml:space="preserve">
<g id="Eye">
	<g>
		<path d="M16,11.25c-8.972,0-16,3.515-16,8c0,4.486,7.028,8,16,8c8.973,0,16-3.514,16-8C32,14.765,24.973,11.25,16,11.25z M2,19.25
			c0-2.099,3.151-4.372,8.129-5.415C8.812,15.262,8,17.16,8,19.25s0.812,3.988,2.129,5.415C5.151,23.622,2,21.35,2,19.25z M16,25.25
			c-3.309,0-6-2.691-6-6c0-3.309,2.691-6,6-6c3.309,0,6,2.691,6,6C22,22.559,19.309,25.25,16,25.25z M21.871,24.665
			C23.188,23.238,24,21.34,24,19.25s-0.812-3.988-2.129-5.415C26.85,14.878,30,17.151,30,19.25C30,21.35,26.85,23.622,21.871,24.665
			z M16,16.25c-1.654,0-3,1.346-3,3c0,1.654,1.346,3,3,3c1.654,0,3-1.346,3-3C19,17.596,17.654,16.25,16,16.25z M16,20.25
			c-0.552,0-1-0.448-1-1c0-0.551,0.448-1,1-1s1,0.449,1,1C17,19.802,16.552,20.25,16,20.25z"/>
	</g>
</g>
</svg>
