<?xml version="1.0" encoding="iso-8859-1"?>
<!-- Generator: Adobe Illustrator 16.0.4, SVG Export Plug-In . SVG Version: 6.00 Build 0)  -->
<!DOCTYPE svg PUBLIC "-//W3C//DTD SVG 1.1//EN" "http://www.w3.org/Graphics/SVG/1.1/DTD/svg11.dtd">
<svg version="1.1" id="Capa_1" xmlns="http://www.w3.org/2000/svg" xmlns:xlink="http://www.w3.org/1999/xlink" x="0px" y="0px"
	 width="17.004px" height="32px" viewBox="0 0 17.004 32" style="enable-background:new 0 0 17.004 32;" xml:space="preserve">
<g id="Flame">
	<g>
		<path d="M5.485,0.063C5.081-0.089,4.624,0.04,4.357,0.383c-0.266,0.344-0.28,0.824-0.035,1.184
			c0.045,0.066,4.458,6.7-0.937,13.287c-5.988,7.312-2.774,14.038,0.069,16.859C3.646,31.902,3.896,32,4.147,32h0.011
			c0.569-0.016,0.998-0.445,0.998-1c0-0.188-0.05-0.361-0.138-0.511c-0.18-0.626-0.35-2.37-0.35-3.347
			c0-2.045,0.825-3.455,1.708-4.379c-0.069,1.282,0.258,2.76,1.408,4.168c0.779,0.951,0.905,2.209,0.375,3.736
			c-0.145,0.418-0.001,0.882,0.354,1.143c0.355,0.26,0.837,0.252,1.183-0.021c1.714-1.339,7.308-6.322,7.308-14.229
			C17.006,4.599,5.601,0.107,5.485,0.063z M10.439,28.42c-0.095-1.027-0.472-1.96-1.128-2.763c-1.909-2.334-0.415-4.65-0.354-4.743
			c0.246-0.359,0.231-0.839-0.035-1.184c-0.192-0.248-0.482-0.385-0.779-0.385c-0.117,0-0.235,0.021-0.349,0.064
			c-0.208,0.079-5.078,1.999-5.104,7.688c-1.245-2.974-1.122-6.888,2.22-10.969c4.023-4.912,3.38-9.882,2.36-12.877
			c3.036,1.96,7.758,6.297,7.758,14.311C15.029,22.574,12.459,26.281,10.439,28.42z"/>
	</g>
</g>
</svg>
