<?xml version="1.0" encoding="iso-8859-1"?>
<!-- Generator: Adobe Illustrator 16.0.4, SVG Export Plug-In . SVG Version: 6.00 Build 0)  -->
<!DOCTYPE svg PUBLIC "-//W3C//DTD SVG 1.1//EN" "http://www.w3.org/Graphics/SVG/1.1/DTD/svg11.dtd">
<svg version="1.1" id="Capa_1" xmlns="http://www.w3.org/2000/svg" xmlns:xlink="http://www.w3.org/1999/xlink" x="0px" y="0px"
	 width="21px" height="32px" viewBox="0 0 21 32" style="enable-background:new 0 0 21 32;" xml:space="preserve">
<g id="Flag">
	<g>
		<path d="M16,0c-2.757,0-5,2.243-5,5c0,1.654-1.346,3-3,3S5,6.654,5,5V3.723C5.146,3.638,5.288,3.54,5.414,3.414
			c0.781-0.781,0.781-2.048,0-2.828c-0.78-0.78-2.047-0.781-2.828,0c-0.781,0.78-0.781,2.047,0,2.828
			C2.712,3.54,2.854,3.638,3,3.723V30H1c-0.553,0-1,0.448-1,1s0.447,1,1,1h6c0.553,0,1-0.448,1-1s-0.447-1-1-1H5V17.975
			C5.838,18.609,6.87,19,8,19c2.757,0,5-2.243,5-5c0-1.654,1.346-3,3-3s3,1.346,3,3c0,0.552,0.447,1,1,1s1-0.448,1-1V5
			C21,2.243,18.757,0,16,0z M19,10.002C18.164,9.373,17.125,9,16,9c-2.757,0-5,2.243-5,5c0,1.654-1.346,3-3,3s-3-1.346-3-3V8.975
			C5.838,9.608,6.87,10,8,10c2.757,0,5-2.243,5-5c0-1.654,1.346-3,3-3s3,1.346,3,3V10.002z"/>
	</g>
</g>
</svg>
