<?xml version="1.0" encoding="iso-8859-1"?>
<!-- Generator: Adobe Illustrator 16.0.4, SVG Export Plug-In . SVG Version: 6.00 Build 0)  -->
<!DOCTYPE svg PUBLIC "-//W3C//DTD SVG 1.1//EN" "http://www.w3.org/Graphics/SVG/1.1/DTD/svg11.dtd">
<svg version="1.1" id="Capa_1" xmlns="http://www.w3.org/2000/svg" xmlns:xlink="http://www.w3.org/1999/xlink" x="0px" y="0px"
	 width="32px" height="27px" viewBox="0 0 32 27" style="enable-background:new 0 0 32 27;" xml:space="preserve">
<g id="Cloud">
	<g>
		<path d="M14,12c-1.654,0-3-1.346-3-3c0-0.553-0.448-1-1-1S9,8.447,9,9c0,2.757,2.243,5,5,5c0.552,0,1-0.447,1-1S14.552,12,14,12z
			 M26.5,15.5c-0.552,0-1,0.447-1,1c0,2.48-2.02,4.5-4.5,4.5c-0.552,0-1,0.448-1,1s0.448,1,1,1c3.584,0,6.5-2.916,6.5-6.5
			C27.5,15.947,27.052,15.5,26.5,15.5z M22.497,6.056C21.254,2.455,17.859,0,14,0C9.038,0,5,4.037,5,9
			c0,0.838,0.114,1.66,0.34,2.455C2.188,12.566,0,15.577,0,19c0,4.411,3.589,8,8,8h14c0.096,0,0.189-0.014,0.277-0.041
			C27.747,26.559,32,22.006,32,16.5C32,11.009,27.882,6.554,22.497,6.056z M21.948,24.977c-0.06,0.002-0.117,0.012-0.173,0.023H8
			c-3.309,0-6-2.691-6-6c0-2.857,2.032-5.332,4.832-5.885c0.296-0.058,0.549-0.246,0.69-0.513s0.154-0.583,0.036-0.86
			C7.188,10.873,7,9.95,7,9c0-3.859,3.14-7,7-7c3.193,0,5.979,2.163,6.771,5.261c0.111,0.433,0.498,0.74,0.944,0.751
			C26.361,8.129,30,11.857,30,16.5C30,21.018,26.463,24.74,21.948,24.977z"/>
	</g>
</g>
</svg>
