<?xml version="1.0" encoding="iso-8859-1"?>
<!-- Generator: Adobe Illustrator 16.0.4, SVG Export Plug-In . SVG Version: 6.00 Build 0)  -->
<!DOCTYPE svg PUBLIC "-//W3C//DTD SVG 1.1//EN" "http://www.w3.org/Graphics/SVG/1.1/DTD/svg11.dtd">
<svg version="1.1" id="Capa_1" xmlns="http://www.w3.org/2000/svg" xmlns:xlink="http://www.w3.org/1999/xlink" x="0px" y="0px"
	 width="32.029px" height="32px" viewBox="0 0 32.029 32" style="enable-background:new 0 0 32.029 32;" xml:space="preserve">
<g id="Cart">
	<g>
		<path d="M31.999,0.758c-0.133-0.535-0.677-0.863-1.213-0.728l-4.004,1c-0.39,0.098-0.684,0.418-0.746,0.814l-0.507,3.208
			L0.879,8.008C0.86,8.01,0.845,8.024,0.824,8.028C0.801,8.032,0.78,8.025,0.756,8.031c-0.057,0.014-0.1,0.049-0.15,0.071
			c-0.057,0.024-0.11,0.043-0.16,0.076c-0.071,0.048-0.127,0.11-0.183,0.173C0.235,8.382,0.198,8.4,0.174,8.434
			C0.168,8.442,0.168,8.452,0.164,8.46C0.11,8.544,0.078,8.638,0.051,8.734c-0.01,0.035-0.03,0.065-0.036,0.101
			c-0.021,0.132-0.021,0.271,0.014,0.409l3.004,12l1,4c0.008,0.029,0.025,0.052,0.035,0.079c0.016,0.048,0.037,0.092,0.061,0.137
			c0.033,0.065,0.074,0.125,0.122,0.181c0.029,0.035,0.06,0.069,0.093,0.101c0.061,0.053,0.125,0.094,0.194,0.131
			c0.036,0.021,0.068,0.043,0.107,0.058C4.757,25.973,4.877,26,5.002,26h21.022c0.553,0,1-0.447,1-0.999
			c0-0.553-0.447-1.001-1-1.001H5.783l-0.5-2h18.739c0.123,0,0.242-0.021,0.352-0.064c0.045-0.017,0.08-0.047,0.121-0.069
			c0.062-0.033,0.126-0.062,0.179-0.107c0.039-0.034,0.065-0.079,0.101-0.12c0.042-0.05,0.089-0.094,0.122-0.15
			c0.028-0.053,0.039-0.113,0.059-0.172c0.021-0.053,0.047-0.102,0.058-0.158l0.004-0.021v-0.01L27.911,2.81l3.36-0.839
			C31.808,1.837,32.134,1.294,31.999,0.758z M4.783,20L2.244,9.859l3.104-0.372L6.853,20H4.783z M8.873,20L7.337,9.249l3.119-0.374
			L10.961,20H8.873z M15.056,20h-2.089L12.449,8.635l3.116-0.373L15.056,20z M19.134,20H17.06l0.52-11.98l3.101-0.371L19.134,20z
			 M23.146,20h-1.994l1.576-12.598l2.133-0.255L23.146,20z M9.006,28c-1.104,0-2.002,0.896-2.002,2.001S7.901,32,9.006,32
			c1.106,0,2.002-0.895,2.002-1.999S10.112,28,9.006,28z M22.021,28c-1.105,0-2.002,0.896-2.002,2.001S20.915,32,22.021,32
			c1.105,0,2.002-0.895,2.002-1.999C24.022,28.896,23.126,28,22.021,28z"/>
	</g>
</g>
</svg>
