<?xml version="1.0" encoding="iso-8859-1"?>
<!-- Generator: Adobe Illustrator 16.0.4, SVG Export Plug-In . SVG Version: 6.00 Build 0)  -->
<!DOCTYPE svg PUBLIC "-//W3C//DTD SVG 1.1//EN" "http://www.w3.org/Graphics/SVG/1.1/DTD/svg11.dtd">
<svg version="1.1" id="Capa_1" xmlns="http://www.w3.org/2000/svg" xmlns:xlink="http://www.w3.org/1999/xlink" x="0px" y="0px"
	 width="32px" height="36.5px" viewBox="0 0 32 36.5" style="enable-background:new 0 0 32 36.5;" xml:space="preserve">
<g id="Mid_x5F_Charged_x5F_Battery">
	<g>
		<path d="M30,13.25h-2c0-1.654-1.346-3-3-3H3c-1.654,0-3,1.346-3,3v10c0,1.654,1.346,3,3,3h22c1.654,0,3-1.346,3-3h2
			c1.104,0,2-0.896,2-2v-6C32,14.147,31.104,13.25,30,13.25z M26,23.25c0,0.552-0.448,1-1,1H3c-0.552,0-1-0.448-1-1v-10
			c0-0.552,0.448-1,1-1h22c0.552,0,1,0.448,1,1V23.25z M30,21.25h-2v-6h2V21.25z M13.447,15.145C13.201,14.652,12.55,14.25,12,14.25
			H5c-0.55,0-1,0.45-1,1v6c0,0.55,0.45,1,1,1h11c0.55,0,0.799-0.402,0.553-0.895L13.447,15.145z"/>
	</g>
</g>
</svg>
