<?xml version="1.0" encoding="iso-8859-1"?>
<!-- Generator: Adobe Illustrator 16.0.4, SVG Export Plug-In . SVG Version: 6.00 Build 0)  -->
<!DOCTYPE svg PUBLIC "-//W3C//DTD SVG 1.1//EN" "http://www.w3.org/Graphics/SVG/1.1/DTD/svg11.dtd">
<svg version="1.1" id="Capa_1" xmlns="http://www.w3.org/2000/svg" xmlns:xlink="http://www.w3.org/1999/xlink" x="0px" y="0px"
	 width="31.997px" height="32px" viewBox="0 0 31.997 32" style="enable-background:new 0 0 31.997 32;" xml:space="preserve">
<g id="Home">
	<g>
		<path d="M31.119,13.862l-13-13.013c-1.134-1.134-3.107-1.134-4.241,0l-13,13.013c-1.17,1.172-1.17,3.075,0,4.246
			c0.567,0.567,1.32,0.88,2.121,0.88c0.348,0,0.682-0.068,1-0.182V30c0,1.104,0.897,2.002,2,2.002h4c1.103,0,2-0.898,2-2.002v-7.008
			h7.999V30c0,1.104,0.897,2.002,2,2.002h4c1.104,0,2-0.898,2-2.002V18.806c0.318,0.111,0.652,0.182,1,0.182
			c0.801,0,1.555-0.312,2.121-0.88C32.289,16.937,32.289,15.034,31.119,13.862z M15.292,2.264c0.189-0.188,0.44-0.293,0.707-0.293
			s0.518,0.104,0.706,0.293c0.391,0.392,0.391,1.025,0,1.416l-0.706,0.707L15.292,3.68C14.901,3.291,14.901,2.656,15.292,2.264z
			 M3.706,16.693c-0.378,0.377-1.036,0.377-1.414,0c-0.39-0.391-0.39-1.024,0-1.416L13.3,4.257c0.143,0.301,0.328,0.589,0.577,0.838
			l0.707,0.708L3.706,16.693z M25.998,30h-4v-7.008c0-1.104-0.896-2.002-2-2.002h-7.999c-1.103,0-2,0.898-2,2.002V30h-4V17.228
			l10-10.01l9.999,10.01V30z M29.705,16.693c-0.377,0.377-1.035,0.377-1.414,0L17.412,5.803l0.707-0.708
			c0.25-0.249,0.435-0.537,0.577-0.838l11.009,11.02C30.094,15.667,30.094,16.302,29.705,16.693z M11.999,14.984
			c0,2.208,1.794,4.004,4,4.004s3.999-1.796,3.999-4.004s-1.793-4.004-3.999-4.004S11.999,12.776,11.999,14.984z M17.998,14.984
			c0,1.104-0.896,2.002-1.999,2.002c-1.103,0-2-0.897-2-2.002c0-1.104,0.897-2.002,2-2.002
			C17.101,12.982,17.998,13.88,17.998,14.984z"/>
	</g>
</g>
</svg>
