<?xml version="1.0" encoding="iso-8859-1"?>
<!-- Generator: Adobe Illustrator 16.0.4, SVG Export Plug-In . SVG Version: 6.00 Build 0)  -->
<!DOCTYPE svg PUBLIC "-//W3C//DTD SVG 1.1//EN" "http://www.w3.org/Graphics/SVG/1.1/DTD/svg11.dtd">
<svg version="1.1" id="Capa_1" xmlns="http://www.w3.org/2000/svg" xmlns:xlink="http://www.w3.org/1999/xlink" x="0px" y="0px"
	 width="22px" height="32px" viewBox="0 0 22 32" style="enable-background:new 0 0 22 32;" xml:space="preserve">
<g id="Ray">
	<g>
		<path d="M21.889,13.54C21.716,13.208,21.374,13,21,13h-7V1c0-0.436-0.282-0.821-0.697-0.953c-0.416-0.131-0.867,0.02-1.119,0.376
			l-12,17c-0.215,0.306-0.243,0.705-0.071,1.037C0.284,18.792,0.626,19,1,19h7v12c0,0.436,0.282,0.82,0.697,0.953
			C8.797,31.984,8.899,32,9,32c0.319,0,0.626-0.152,0.817-0.423l12-17C22.032,14.271,22.061,13.872,21.889,13.54z M10,27.85V18
			c0-0.553-0.448-1-1-1H2.93L12,4.15V14c0,0.553,0.448,1,1,1h6.07L10,27.85z"/>
	</g>
</g>
</svg>
