<?xml version="1.0" encoding="iso-8859-1"?>
<!-- Generator: Adobe Illustrator 16.0.4, SVG Export Plug-In . SVG Version: 6.00 Build 0)  -->
<!DOCTYPE svg PUBLIC "-//W3C//DTD SVG 1.1//EN" "http://www.w3.org/Graphics/SVG/1.1/DTD/svg11.dtd">
<svg version="1.1" id="Capa_1" xmlns="http://www.w3.org/2000/svg" xmlns:xlink="http://www.w3.org/1999/xlink" x="0px" y="0px"
	 width="18px" height="32px" viewBox="0 0 18 32" style="enable-background:new 0 0 18 32;" xml:space="preserve">
<g id="Bulb">
	<g>
		<path d="M9,0C4.037,0,0,4.037,0,9c0,2.399,0.798,4.417,1.57,6.368C2.306,17.227,3,18.98,3,21c0,1.064,0.562,1.997,1.401,2.529
			C4.153,23.966,4,24.463,4,25c0,1.064,0.562,1.997,1.401,2.529C5.153,27.966,5,28.463,5,29c0,1.654,1.346,3,3,3h2
			c1.654,0,3-1.346,3-3c0-0.537-0.152-1.034-0.4-1.471C13.438,26.997,14,26.064,14,25c0-0.537-0.152-1.034-0.4-1.471
			C14.438,22.997,15,22.064,15,21c0-2.02,0.693-3.773,1.43-5.632C17.202,13.417,18,11.399,18,9C18,4.037,13.963,0,9,0z M10,30H8
			c-0.552,0-1-0.448-1-1s0.448-1,1-1h2c0.552,0,1,0.448,1,1S10.552,30,10,30z M11,26H7c-0.552,0-1-0.448-1-1s0.448-1,1-1h4
			c0.552,0,1,0.448,1,1S11.552,26,11,26z M6.16,10.771C6.968,11.44,7.953,12,9,12c1.052,0,2.041-0.564,2.852-1.238
			c-0.252,2.16-0.791,3.521-1.354,4.929c-0.663,1.653-1.342,3.372-1.47,6.31H8.976C8.857,18.5,8.13,16.768,7.419,15.107
			C6.899,13.893,6.404,12.713,6.16,10.771z M14.57,14.632C13.798,16.583,13,18.602,13,21c0,0.552-0.448,1-1,1h-0.975
			c0.123-2.549,0.709-4.021,1.328-5.565C13.125,14.509,14,12.326,14,8c0-0.033-0.016-0.061-0.02-0.093
			c-0.006-0.069-0.02-0.134-0.041-0.201c-0.019-0.061-0.041-0.116-0.069-0.172c-0.029-0.056-0.063-0.104-0.103-0.154
			c-0.045-0.054-0.092-0.102-0.146-0.146c-0.023-0.02-0.039-0.048-0.066-0.066c-0.025-0.018-0.056-0.02-0.082-0.034
			c-0.061-0.032-0.121-0.057-0.188-0.076c-0.066-0.021-0.13-0.034-0.196-0.04C13.059,7.015,13.031,7,13,7
			c-0.033,0-0.061,0.016-0.093,0.019c-0.07,0.007-0.136,0.02-0.203,0.041c-0.06,0.019-0.114,0.04-0.169,0.069
			c-0.057,0.03-0.105,0.065-0.156,0.106c-0.054,0.043-0.102,0.089-0.145,0.143c-0.021,0.025-0.049,0.04-0.066,0.067
			C11.611,8.279,10.105,10,9,10c-1.1,0-2.609-1.722-3.169-2.556C5.813,7.418,5.785,7.403,5.766,7.379
			C5.721,7.324,5.674,7.277,5.619,7.233c-0.05-0.04-0.099-0.074-0.154-0.104C5.41,7.1,5.354,7.078,5.294,7.06
			C5.227,7.038,5.161,7.025,5.091,7.019C5.06,7.016,5.032,7,5,7C4.969,7,4.943,7.015,4.912,7.018
			c-0.067,0.006-0.132,0.02-0.198,0.04S4.587,7.102,4.527,7.135C4.5,7.149,4.471,7.151,4.444,7.169
			C4.417,7.187,4.403,7.215,4.38,7.234C4.324,7.279,4.276,7.327,4.232,7.383c-0.039,0.048-0.072,0.096-0.1,0.149
			C4.101,7.589,4.078,7.647,4.059,7.71C4.039,7.774,4.025,7.838,4.02,7.904C4.016,7.938,4,7.966,4,8c0,4.205,0.804,6.08,1.581,7.894
			C6.242,17.436,6.864,18.918,6.977,22H6c-0.552,0-1-0.448-1-1c0-2.398-0.798-4.417-1.57-6.368C2.694,12.773,2,11.019,2,9
			c0-3.859,3.141-7,7-7c3.859,0,7,3.141,7,7C16,11.019,15.307,12.773,14.57,14.632z"/>
	</g>
</g>
</svg>
