<?xml version="1.0" encoding="iso-8859-1"?>
<!-- Generator: Adobe Illustrator 16.0.4, SVG Export Plug-In . SVG Version: 6.00 Build 0)  -->
<!DOCTYPE svg PUBLIC "-//W3C//DTD SVG 1.1//EN" "http://www.w3.org/Graphics/SVG/1.1/DTD/svg11.dtd">
<svg version="1.1" id="Capa_1" xmlns="http://www.w3.org/2000/svg" xmlns:xlink="http://www.w3.org/1999/xlink" x="0px" y="0px"
	 width="32px" height="31.969px" viewBox="0 0 32 31.969" style="enable-background:new 0 0 32 31.969;" xml:space="preserve">
<g id="Badge_x5F_6">
	<g>
		<path d="M25.707,24.27l-0.503-0.502l6.082-6.076c0.921-0.918,0.921-2.521,0.001-3.438L25.219,8.19l0.488-0.489l6-5.994
			c0.391-0.39,0.391-1.021,0-1.412c-0.391-0.391-1.023-0.391-1.414,0l-6,5.994l-0.488,0.488L22.718,5.69l3.989-3.985
			c0.391-0.39,0.391-1.021,0-1.412c-0.391-0.391-1.023-0.391-1.414,0l-3.988,3.985l-1.087-1.085l1.489-1.488
			c0.391-0.39,0.391-1.021,0-1.412c-0.391-0.391-1.023-0.391-1.414,0L18.805,1.78l-1.07-1.068c-0.948-0.946-2.491-0.946-3.44,0
			L13.21,1.794l-1.503-1.501c-0.391-0.391-1.023-0.391-1.414,0C10.098,0.487,10,0.743,10,0.999s0.098,0.511,0.293,0.706l1.503,1.502
			L10.71,4.292c-0.001-0.001-0.001-0.002-0.003-0.003l-4-3.996c-0.391-0.391-1.023-0.391-1.414,0C5.098,0.487,5,0.743,5,0.999
			S5.098,1.51,5.293,1.705l4,3.996c0.001,0.001,0.002,0.002,0.004,0.003L8.21,6.789L7.707,6.287L7.706,6.286L1.707,0.293
			c-0.391-0.391-1.023-0.391-1.414,0C0.098,0.487,0,0.743,0,0.999S0.098,1.51,0.293,1.705l6.503,6.497l-6.082,6.077
			C0.254,14.738,0,15.351,0,15.998c0,0.648,0.254,1.261,0.714,1.719l6.068,6.062l-6.489,6.484C0.098,30.459,0,30.714,0,30.971
			c0,0.256,0.098,0.51,0.293,0.705c0.391,0.391,1.023,0.391,1.414,0l5.999-5.992c0,0,0.001,0,0.001-0.002l0.489-0.488l1.086,1.086
			l-3.989,3.984C5.098,30.459,5,30.714,5,30.971c0,0.256,0.098,0.51,0.293,0.705c0.391,0.391,1.023,0.391,1.414,0l3.989-3.984
			l1.086,1.084l-1.489,1.488C10.098,30.459,10,30.714,10,30.971c0,0.256,0.098,0.51,0.293,0.705c0.391,0.391,1.023,0.391,1.414,0
			l1.489-1.486l1.069,1.067c0.949,0.947,2.493,0.947,3.441,0l1.082-1.082l1.504,1.501c0.392,0.391,1.022,0.391,1.414,0
			c0.392-0.39,0.392-1.021,0-1.412l-1.503-1.502l1.087-1.085c0.001,0.001,0.001,0.003,0.002,0.003l4,3.996
			c0.392,0.391,1.022,0.391,1.414,0c0.392-0.39,0.392-1.021,0-1.412l-4-3.996c-0.001,0-0.003,0-0.004-0.002l1.087-1.086l0.503,0.502
			l6,5.994c0.392,0.391,1.022,0.391,1.414,0c0.392-0.39,0.392-1.021,0-1.412L25.707,24.27z M15.707,2.125
			c0.17-0.169,0.445-0.169,0.613,0l6.069,6.063L16,14.571L9.624,8.202L15.707,2.125z M8.196,22.368l-6.069-6.063
			c-0.221-0.221-0.221-0.392,0-0.612L8.21,9.614l6.376,6.37L8.196,22.368z M16.293,29.844c-0.169,0.17-0.444,0.17-0.613,0
			l-6.07-6.064L16,17.396l6.376,6.369L16.293,29.844z M23.79,22.354l-6.376-6.369l6.391-6.383l6.068,6.062
			C29.984,15.775,30,15.904,30,15.972c0,0.066-0.016,0.194-0.127,0.307L23.79,22.354z M24,12.987c-1.654,0-3,1.345-3,2.997
			c0,1.651,1.346,2.996,3,2.996s3-1.345,3-2.996C27,14.332,25.654,12.987,24,12.987z M24,16.982c-0.551,0-1-0.447-1-0.998
			s0.449-0.999,1-0.999c0.552,0,1,0.448,1,0.999S24.552,16.982,24,16.982z M8,12.987c-1.654,0-3,1.345-3,2.997
			c0,1.651,1.346,2.996,3,2.996s3-1.345,3-2.996C11,14.332,9.654,12.987,8,12.987z M8,16.982c-0.551,0-1-0.447-1-0.998
			s0.449-0.999,1-0.999c0.552,0,1,0.448,1,0.999S8.552,16.982,8,16.982z"/>
	</g>
</g>
</svg>
