<?xml version="1.0" encoding="iso-8859-1"?>
<!-- Generator: Adobe Illustrator 16.0.4, SVG Export Plug-In . SVG Version: 6.00 Build 0)  -->
<!DOCTYPE svg PUBLIC "-//W3C//DTD SVG 1.1//EN" "http://www.w3.org/Graphics/SVG/1.1/DTD/svg11.dtd">
<svg version="1.1" id="Capa_1" xmlns="http://www.w3.org/2000/svg" xmlns:xlink="http://www.w3.org/1999/xlink" x="0px" y="0px"
	 width="32.031px" height="32px" viewBox="0 0 32.031 32" style="enable-background:new 0 0 32.031 32;" xml:space="preserve">
<g id="Magnifying_x5F_Glass">
	<g>
		<path d="M20.519,0c-6.346,0-11.51,5.158-11.51,11.5c0,2.083,0.565,4.033,1.539,5.721l-9.668,9.658
			c-1.173,1.171-1.173,3.071,0,4.242C1.465,31.707,2.233,32,3.002,32s1.537-0.293,2.123-0.879l9.668-9.658
			C16.481,22.436,18.435,23,20.519,23c6.349,0,11.513-5.158,11.513-11.5S26.866,0,20.519,0z M3.71,29.707
			C3.455,29.962,3.157,30,3.002,30c-0.154,0-0.452-0.038-0.708-0.293C2.04,29.452,2.001,29.154,2.001,29s0.038-0.452,0.293-0.706
			l9.415-9.407c0.431,0.512,0.904,0.984,1.415,1.415L3.71,29.707z M20.519,21c-5.242,0-9.508-4.262-9.508-9.5
			c0-5.238,4.265-9.5,9.508-9.5c5.244,0,9.51,4.262,9.51,9.5C30.028,16.738,25.763,21,20.519,21z M25.788,6.101
			c-0.391-0.391-1.023-0.391-1.416,0c-0.391,0.39-0.391,1.023,0,1.414c2.199,2.198,2.199,5.773,0.001,7.97
			c-0.392,0.391-0.392,1.024,0,1.414c0.196,0.195,0.452,0.293,0.708,0.293s0.512-0.098,0.708-0.293
			C28.769,13.923,28.769,9.079,25.788,6.101z"/>
	</g>
</g>
</svg>
