<?xml version="1.0" encoding="iso-8859-1"?>
<!-- Generator: Adobe Illustrator 16.0.4, SVG Export Plug-In . SVG Version: 6.00 Build 0)  -->
<!DOCTYPE svg PUBLIC "-//W3C//DTD SVG 1.1//EN" "http://www.w3.org/Graphics/SVG/1.1/DTD/svg11.dtd">
<svg version="1.1" id="Capa_1" xmlns="http://www.w3.org/2000/svg" xmlns:xlink="http://www.w3.org/1999/xlink" x="0px" y="0px"
	 width="26px" height="32px" viewBox="0 0 26 32" style="enable-background:new 0 0 26 32;" xml:space="preserve">
<g id="Calculator">
	<g>
		<path d="M23,0H3C1.346,0,0,1.346,0,3v26c0,1.654,1.346,3,3,3h20c1.654,0,3-1.346,3-3V3C26,1.346,24.654,0,23,0z M24,29
			c0,0.552-0.448,1-1,1H3c-0.552,0-1-0.448-1-1V8.815C2.314,8.928,2.647,9,3,9h20c0.354,0,0.686-0.072,1-0.185V29z M24,6
			c0,0.552-0.448,1-1,1H3C2.448,7,2,6.552,2,6V3c0-0.552,0.448-1,1-1h20c0.552,0,1,0.448,1,1V6z M10,14H9v-1c0-0.553-0.447-1-1-1
			s-1,0.447-1,1v1H6c-0.553,0-1,0.447-1,1s0.447,1,1,1h1v1c0,0.553,0.447,1,1,1s1-0.447,1-1v-1h1c0.553,0,1-0.447,1-1
			S10.553,14,10,14z M20,14h-4c-0.553,0-1,0.447-1,1s0.447,1,1,1h4c0.553,0,1-0.447,1-1S20.553,14,20,14z M20,21h-4
			c-0.553,0-1,0.447-1,1s0.447,1,1,1h4c0.553,0,1-0.447,1-1S20.553,21,20,21z M20,25h-4c-0.553,0-1,0.447-1,1s0.447,1,1,1h4
			c0.553,0,1-0.447,1-1S20.553,25,20,25z M10.707,21.293c-0.391-0.391-1.023-0.391-1.414,0L8,22.586l-1.293-1.293
			c-0.391-0.391-1.023-0.391-1.414,0s-0.391,1.023,0,1.414L6.586,24l-1.293,1.293c-0.391,0.391-0.391,1.023,0,1.414
			C5.488,26.902,5.744,27,6,27s0.512-0.098,0.707-0.293L8,25.414l1.293,1.293C9.488,26.902,9.744,27,10,27s0.512-0.098,0.707-0.293
			c0.391-0.391,0.391-1.023,0-1.414L9.414,24l1.293-1.293C11.098,22.316,11.098,21.684,10.707,21.293z"/>
	</g>
</g>
</svg>
