<?xml version="1.0" encoding="iso-8859-1"?>
<!-- Generator: Adobe Illustrator 16.0.4, SVG Export Plug-In . SVG Version: 6.00 Build 0)  -->
<!DOCTYPE svg PUBLIC "-//W3C//DTD SVG 1.1//EN" "http://www.w3.org/Graphics/SVG/1.1/DTD/svg11.dtd">
<svg version="1.1" id="Capa_1" xmlns="http://www.w3.org/2000/svg" xmlns:xlink="http://www.w3.org/1999/xlink" x="0px" y="0px"
	 width="22px" height="32px" viewBox="0 0 22 32" style="enable-background:new 0 0 22 32;" xml:space="preserve">
<g id="Microphone">
	<g>
		<path d="M11,23c3.859,0,7-3.141,7-7V7c0-3.859-3.141-7-7-7C7.141,0,4,3.141,4,7v9C4,19.859,7.141,23,11,23z M7,14H6v-2h1
			c0.553,0,1-0.447,1-1s-0.447-1-1-1H6V8h1c0.553,0,1-0.447,1-1S7.553,6,7,6H6.102C6.565,3.721,8.586,2,11,2s4.436,1.721,4.898,4H15
			c-0.553,0-1,0.447-1,1s0.447,1,1,1h1v2h-1c-0.553,0-1,0.447-1,1s0.447,1,1,1h1v2h-1c-0.553,0-1,0.447-1,1c0,0.552,0.447,1,1,1h1
			c0,2.757-2.243,5-5,5s-5-2.243-5-5h1c0.553,0,1-0.448,1-1C8,14.447,7.553,14,7,14z M11,19c0.553,0,1-0.448,1-1V5
			c0-0.553-0.447-1-1-1c-0.553,0-1,0.447-1,1v13C10,18.552,10.447,19,11,19z M18,30h-4v-3.426c4.609-1.311,8-5.551,8-10.574
			c0-0.552-0.447-1-1-1s-1,0.448-1,1c0,4.963-4.037,9-9,9s-9-4.037-9-9c0-0.552-0.447-1-1-1s-1,0.448-1,1
			c0,5.023,3.39,9.264,8,10.574V30H4c-0.553,0-1,0.447-1,1c0,0.552,0.447,1,1,1h14c0.553,0,1-0.448,1-1C19,30.447,18.553,30,18,30z
			 M12,30h-2v-3.051C10.33,26.979,10.662,27,11,27s0.67-0.021,1-0.051V30z"/>
	</g>
</g>
</svg>
