<?xml version="1.0" encoding="iso-8859-1"?>
<!-- Generator: Adobe Illustrator 16.0.4, SVG Export Plug-In . SVG Version: 6.00 Build 0)  -->
<!DOCTYPE svg PUBLIC "-//W3C//DTD SVG 1.1//EN" "http://www.w3.org/Graphics/SVG/1.1/DTD/svg11.dtd">
<svg version="1.1" id="Capa_1" xmlns="http://www.w3.org/2000/svg" xmlns:xlink="http://www.w3.org/1999/xlink" x="0px" y="0px"
	 width="32px" height="22px" viewBox="0 0 32 22" style="enable-background:new 0 0 32 22;" xml:space="preserve">
<g id="menu">
	<g>
		<path d="M3,6h26c1.654,0,3-1.346,3-3s-1.346-3-3-3H3C1.346,0,0,1.346,0,3S1.346,6,3,6z M3,2h26c0.552,0,1,0.449,1,1
			c0,0.552-0.448,1-1,1H3C2.448,4,2,3.552,2,3C2,2.449,2.448,2,3,2z M29,8H3c-1.654,0-3,1.346-3,3c0,1.654,1.346,3,3,3h26
			c1.654,0,3-1.346,3-3C32,9.346,30.654,8,29,8z M29,12H3c-0.552,0-1-0.448-1-1s0.448-1,1-1h26c0.552,0,1,0.448,1,1S29.552,12,29,12
			z M29,16H3c-1.654,0-3,1.346-3,3s1.346,3,3,3h26c1.654,0,3-1.346,3-3S30.654,16,29,16z M29,20H3c-0.552,0-1-0.448-1-1s0.448-1,1-1
			h26c0.552,0,1,0.448,1,1S29.552,20,29,20z"/>
	</g>
</g>
</svg>
