<?xml version="1.0" encoding="iso-8859-1"?>
<!-- Generator: Adobe Illustrator 16.0.4, SVG Export Plug-In . SVG Version: 6.00 Build 0)  -->
<!DOCTYPE svg PUBLIC "-//W3C//DTD SVG 1.1//EN" "http://www.w3.org/Graphics/SVG/1.1/DTD/svg11.dtd">
<svg version="1.1" id="Capa_1" xmlns="http://www.w3.org/2000/svg" xmlns:xlink="http://www.w3.org/1999/xlink" x="0px" y="0px"
	 width="32px" height="32px" viewBox="0 0 32 32" style="enable-background:new 0 0 32 32;" xml:space="preserve">
<g id="Mute_x5F_Speaker">
	<g>
		<path d="M31.707,0.293c-0.391-0.391-1.023-0.391-1.414,0l-30,30c-0.391,0.391-0.391,1.023,0,1.414C0.488,31.902,0.744,32,1,32
			s0.513-0.098,0.707-0.293l30-30C32.098,1.316,32.098,0.685,31.707,0.293z M24.096,12.146c-0.391-0.392-1.022-0.392-1.414,0
			c-0.391,0.391-0.391,1.022,0,1.414l5.879,5.879C28.844,19.723,29,20.1,29,20.5s-0.156,0.777-0.439,1.061
			c-0.201,0.203-0.453,0.342-0.735,0.404c-0.026,0.002-0.054,0.006-0.073,0.01c-0.109,0.02-0.221,0.023-0.33,0.019
			c-0.023-0.001-0.047-0.005-0.068-0.007c-0.09-0.01-0.177-0.024-0.262-0.049c-0.025-0.008-0.053-0.016-0.078-0.023
			c-0.082-0.028-0.162-0.064-0.238-0.107c-0.022-0.014-0.047-0.022-0.067-0.037c-0.097-0.06-0.187-0.127-0.267-0.207l-5.879-5.879
			c-0.392-0.392-1.023-0.392-1.414,0c-0.392,0.391-0.392,1.022,0,1.414L24.051,22H16c-0.675,0-1.351-0.119-2.01-0.354
			c-0.522-0.186-1.093,0.086-1.278,0.605c-0.185,0.521,0.087,1.094,0.606,1.277C14.194,23.842,15.097,24,16,24
			c0.268,0,0.518,0.104,0.707,0.293S17,24.732,17,25s-0.104,0.518-0.293,0.707l-3,3c-0.379,0.377-1.035,0.377-1.414,0l-2.379-2.379
			c-0.391-0.391-1.022-0.391-1.414,0c-0.391,0.391-0.391,1.023,0,1.414l2.379,2.379C11.445,30.688,12.199,31,13,31
			s1.556-0.312,2.121-0.879l3-3C18.688,26.555,19,25.801,19,25c0-0.348-0.068-0.682-0.182-1H27.5c0.195,0,0.391-0.021,0.504-0.044
			c0.044-0.003,0.121-0.013,0.164-0.021c0.688-0.134,1.312-0.467,1.807-0.961C30.637,22.312,31,21.436,31,20.5
			s-0.363-1.812-1.025-2.475L24.096,12.146z M4.258,23.5c0.195,0.195,0.451,0.293,0.707,0.293c0.257,0,0.513-0.098,0.707-0.293
			c0.392-0.391,0.392-1.023,0-1.414l-2.379-2.379C3.104,19.518,3,19.268,3,19s0.104-0.518,0.293-0.707l3-3
			c0.379-0.377,1.035-0.377,1.414,0C7.896,15.482,8,15.733,8,16c0,0.904,0.158,1.807,0.471,2.682
			c0.042,0.118,0.108,0.221,0.187,0.311c0.024,0.027,0.052,0.05,0.079,0.074c0.061,0.058,0.125,0.105,0.197,0.146
			c0.033,0.02,0.065,0.035,0.103,0.051c0.081,0.032,0.165,0.053,0.253,0.063c0.03,0.004,0.059,0.013,0.089,0.014
			c0.013,0.001,0.023,0.007,0.035,0.007c0.111,0,0.226-0.02,0.336-0.059c0.521-0.186,0.791-0.758,0.606-1.278
			C10.119,17.352,10,16.675,10,15.979v-8.03l4.904,4.904c0.195,0.194,0.451,0.293,0.707,0.293s0.512-0.099,0.707-0.293
			c0.391-0.392,0.391-1.023,0-1.414l-5.879-5.879C10.156,5.277,10,4.9,10,4.5c0-0.399,0.156-0.776,0.439-1.061
			c0.565-0.566,1.555-0.566,2.121,0c0.009,0.009,0.018,0.018,0.026,0.025l5.853,5.854c0.391,0.391,1.022,0.391,1.414,0
			c0.391-0.392,0.391-1.023,0-1.414l-5.878-5.879c-1.321-1.32-3.627-1.322-4.95,0C8.364,2.688,8,3.565,8,4.5v8.702
			c-1.06-0.355-2.307-0.138-3.121,0.677l-3,3C1.312,17.445,1,18.199,1,19s0.312,1.555,0.879,2.121L4.258,23.5z"/>
	</g>
</g>
</svg>
