<?xml version="1.0" encoding="iso-8859-1"?>
<!-- Generator: Adobe Illustrator 16.0.4, SVG Export Plug-In . SVG Version: 6.00 Build 0)  -->
<!DOCTYPE svg PUBLIC "-//W3C//DTD SVG 1.1//EN" "http://www.w3.org/Graphics/SVG/1.1/DTD/svg11.dtd">
<svg version="1.1" id="Capa_1" xmlns="http://www.w3.org/2000/svg" xmlns:xlink="http://www.w3.org/1999/xlink" x="0px" y="0px"
	 width="32px" height="32.002px" viewBox="0 0 32 32.002" style="enable-background:new 0 0 32 32.002;" xml:space="preserve">
<g id="Expand">
	<g>
		<path d="M12,0.001L3,0C2.199,0,1.445,0.312,0.879,0.879C0.312,1.445,0,2.199,0,3v9.001c0,1.653,1.346,3,3,3s3-1.346,3-3v-1.639
			l3.879,3.759c1.132,1.132,3.108,1.134,4.242,0c1.17-1.17,1.17-3.072,0.011-4.232l-3.77-3.888H12c1.654,0,3-1.346,3-3
			S13.654,0.001,12,0.001z M12,4.001H8c-0.401,0-0.765,0.24-0.921,0.61C6.923,4.98,7.003,5.408,7.282,5.697l5.425,5.596
			c0.39,0.39,0.39,1.024,0,1.414c-0.377,0.379-1.027,0.389-1.425-0.011L5.696,7.282C5.407,7.003,4.979,6.923,4.61,7.08
			C4.24,7.237,4,7.6,4,8.001v4c0,0.551-0.448,1-1,1c-0.552-0.001-1-0.449-1-1V3c0-0.267,0.104-0.518,0.293-0.707S2.733,2,3,2
			l9,0.001c0.552,0,1,0.448,1,1C13,3.552,12.552,4.001,12,4.001z M31.121,0.879C30.555,0.312,29.801,0,29,0l-9,0.001
			c-1.654,0-3,1.346-3,3s1.346,3,3,3h1.639l-3.76,3.877c-1.17,1.171-1.17,3.073,0,4.244c1.135,1.133,3.121,1.12,4.23,0.011
			L26,10.362v1.639c0,1.654,1.346,3,3,3s3-1.347,3-3V3C32,2.199,31.688,1.445,31.121,0.879z M30,12.001c0,0.551-0.448,0.999-1,1
			c-0.552,0-1-0.449-1-1v-4c0-0.401-0.24-0.764-0.609-0.921C27.264,7.027,27.132,7.001,27,7.001c-0.255,0-0.506,0.098-0.695,0.281
			l-5.598,5.425c-0.377,0.378-1.036,0.378-1.414,0c-0.391-0.39-0.391-1.024,0.012-1.425l5.413-5.585
			c0.279-0.289,0.359-0.717,0.203-1.086C24.766,4.241,24.4,4.001,24,4.001h-4c-0.552,0-1-0.449-1-1c0-0.552,0.448-1,1-1L29,2
			c0.268,0,0.518,0.104,0.707,0.293S30,2.733,30,3V12.001z M29,17.001c-1.654,0-3,1.346-3,3v1.639l-3.878-3.758
			c-1.134-1.135-3.11-1.134-4.243-0.001c-1.17,1.17-1.17,3.073-0.011,4.231l3.771,3.889H20c-1.654,0-3,1.346-3,3s1.346,3,3,3
			l9,0.001c0.801,0,1.555-0.312,2.121-0.879S32,29.804,32,29.002v-9.001C32,18.349,30.654,17.002,29,17.001z M30,29.002
			c0,0.267-0.104,0.519-0.293,0.707S29.268,30.002,29,30.002l-9-0.001c-0.552,0-1-0.447-1-1c0-0.551,0.448-1,1-1h4
			c0.4,0,0.766-0.24,0.921-0.609c0.156-0.369,0.076-0.798-0.203-1.086l-5.425-5.597c-0.391-0.39-0.391-1.022,0-1.413
			c0.376-0.377,1.025-0.393,1.425,0.01l5.587,5.414c0.288,0.278,0.715,0.357,1.086,0.202C27.76,24.765,28,24.401,28,24.001v-4
			c0-0.552,0.448-1,1-1c0.551,0,1,0.448,1,1V29.002z M12,26.001h-1.638l3.759-3.877c1.17-1.17,1.17-3.073,0-4.244
			c-1.133-1.131-3.12-1.12-4.231-0.01L6,21.64v-1.639c0-1.654-1.346-3-3-3c-1.654,0.001-3,1.348-3,3v9.001
			c0,0.802,0.312,1.556,0.879,2.121S2.199,32.002,3,32.002l9-0.001c1.654,0,3-1.346,3-3S13.654,26.001,12,26.001z M12,30.001
			l-9,0.001c-0.267,0-0.518-0.104-0.707-0.293S2,29.269,2,29.002v-9.001c0-0.552,0.449-1,1-1c0.552,0,1,0.448,1,1v4
			c0,0.4,0.24,0.764,0.61,0.921c0.369,0.155,0.797,0.076,1.086-0.202l5.597-5.424c0.377-0.379,1.037-0.378,1.414-0.001
			c0.39,0.392,0.39,1.024-0.011,1.425l-5.414,5.586c-0.279,0.288-0.359,0.717-0.203,1.086c0.156,0.369,0.52,0.609,0.921,0.609h4
			c0.552,0,1,0.449,1,1C13,29.554,12.552,30.001,12,30.001z"/>
	</g>
</g>
</svg>
