<?xml version="1.0" encoding="iso-8859-1"?>
<!-- Generator: Adobe Illustrator 16.0.4, SVG Export Plug-In . SVG Version: 6.00 Build 0)  -->
<!DOCTYPE svg PUBLIC "-//W3C//DTD SVG 1.1//EN" "http://www.w3.org/Graphics/SVG/1.1/DTD/svg11.dtd">
<svg version="1.1" id="Capa_1" xmlns="http://www.w3.org/2000/svg" xmlns:xlink="http://www.w3.org/1999/xlink" x="0px" y="0px"
	 width="32.143px" height="32px" viewBox="0 0 32.143 32" style="enable-background:new 0 0 32.143 32;" xml:space="preserve">
<g id="Badge_x5F_8">
	<g>
		<path d="M29.84,13.36c-1.35-1.62-1.927-3.2-1.715-4.697c0.33-2.337,2.481-3.817,2.501-3.831c0.249-0.166,0.411-0.436,0.439-0.732
			c0.029-0.298-0.075-0.595-0.288-0.807l-3-3c-0.391-0.391-1.022-0.391-1.414,0c-0.024,0.025-2.562,2.511-5.44,2.369
			c-1.493-0.068-2.867-0.843-4.083-2.303c-0.021-0.023-0.049-0.034-0.071-0.058c-0.021-0.021-0.032-0.051-0.057-0.069
			c-0.029-0.025-0.065-0.032-0.096-0.052c-0.058-0.038-0.114-0.07-0.177-0.097c-0.06-0.023-0.118-0.04-0.18-0.052
			c-0.063-0.014-0.124-0.02-0.188-0.02c-0.063,0-0.126,0.006-0.188,0.02c-0.062,0.012-0.119,0.027-0.178,0.052
			c-0.063,0.025-0.121,0.059-0.18,0.097c-0.029,0.02-0.064,0.026-0.095,0.052c-0.023,0.02-0.035,0.049-0.057,0.069
			c-0.022,0.022-0.052,0.033-0.071,0.058c-1.213,1.457-2.584,2.23-4.073,2.302C8.371,2.804,5.803,0.316,5.778,0.293
			c-0.391-0.391-1.022-0.391-1.414,0l-3,3C1.153,3.504,1.05,3.799,1.078,4.097C1.105,4.395,1.267,4.663,1.514,4.83
			c0.021,0.016,2.174,1.496,2.504,3.833C4.23,10.16,3.653,11.74,2.303,13.36c-1.808,2.169-2.539,4.058-2.236,5.771
			c0.466,2.632,3.213,4.229,6.123,5.923c0.45,0.262,0.909,0.526,1.367,0.803c6.309,3.783,7.611,5.593,7.665,5.67
			C15.411,31.832,15.737,32,16.072,32c0.173,0,0.347-0.044,0.505-0.139c0.032-0.02,0.052-0.051,0.082-0.072
			c0.059-0.041,0.11-0.09,0.159-0.145c0.023-0.026,0.05-0.051,0.069-0.08c0.009-0.013,0.021-0.021,0.03-0.035
			c0.012-0.019,1.249-1.821,7.667-5.672c0.458-0.275,0.917-0.541,1.367-0.803c2.909-1.693,5.657-3.291,6.123-5.923
			C32.379,17.418,31.647,15.529,29.84,13.36z M30.106,18.786c-0.303,1.716-2.553,3.022-5.159,4.539
			c-0.458,0.267-0.924,0.538-1.391,0.817c-4.342,2.604-6.47,4.354-7.485,5.351c-1.016-0.996-3.144-2.745-7.484-5.351
			c-0.467-0.279-0.934-0.552-1.392-0.817c-2.605-1.517-4.855-2.823-5.158-4.539c-0.194-1.101,0.396-2.457,1.804-4.146
			c1.731-2.08,2.458-4.192,2.155-6.28C5.695,6.294,4.444,4.776,3.554,3.932l1.566-1.566C6.267,3.273,8.576,4.787,11.31,4.66
			c1.752-0.08,3.349-0.824,4.761-2.198c1.413,1.374,3.009,2.118,4.761,2.198c2.702,0.122,5.042-1.387,6.189-2.295l1.566,1.566
			c-0.892,0.845-2.143,2.361-2.441,4.429c-0.303,2.088,0.423,4.2,2.155,6.28C29.711,16.329,30.301,17.686,30.106,18.786z
			 M21.778,9.293c-0.391-0.391-1.022-0.391-1.414,0l-4.292,4.293l-4.293-4.293c-0.391-0.391-1.022-0.391-1.414,0
			c-0.391,0.392-0.391,1.023,0,1.414L14.658,15l-4.294,4.293c-0.391,0.391-0.391,1.023,0,1.414C10.56,20.902,10.815,21,11.071,21
			c0.257,0,0.513-0.098,0.707-0.293l4.293-4.293l4.292,4.293C20.56,20.902,20.815,21,21.071,21c0.257,0,0.513-0.098,0.707-0.293
			c0.392-0.391,0.392-1.023,0-1.414L17.485,15l4.293-4.293C22.169,10.316,22.169,9.685,21.778,9.293z"/>
	</g>
</g>
</svg>
