<?xml version="1.0" encoding="iso-8859-1"?>
<!-- Generator: Adobe Illustrator 16.0.4, SVG Export Plug-In . SVG Version: 6.00 Build 0)  -->
<!DOCTYPE svg PUBLIC "-//W3C//DTD SVG 1.1//EN" "http://www.w3.org/Graphics/SVG/1.1/DTD/svg11.dtd">
<svg version="1.1" id="Capa_1" xmlns="http://www.w3.org/2000/svg" xmlns:xlink="http://www.w3.org/1999/xlink" x="0px" y="0px"
	 width="22px" height="32px" viewBox="0 0 22 32" style="enable-background:new 0 0 22 32;" xml:space="preserve">
<g id="Padlock">
	<g>
		<path d="M19,14V8c0-4.411-3.589-8-8-8S3,3.589,3,8v6c-1.654,0-3,1.346-3,3v12c0,1.654,1.346,3,3,3h16c1.654,0,3-1.346,3-3V17
			C22,15.346,20.654,14,19,14z M5,8c0-3.309,2.691-6,6-6c3.309,0,6,2.691,6,6v6H5V8z M20,29c0,0.552-0.449,1-1,1H3
			c-0.551,0-1-0.448-1-1V17c0-0.552,0.449-1,1-1h16c0.551,0,1,0.448,1,1V29z M12,22.277V20c0-0.553-0.448-1-1-1s-1,0.447-1,1v2.277
			C9.405,22.624,9,23.262,9,24c0,1.104,0.896,2,2,2c1.104,0,2-0.896,2-2C13,23.262,12.596,22.624,12,22.277z"/>
	</g>
</g>
</svg>
