<?xml version="1.0" encoding="iso-8859-1"?>
<!-- Generator: Adobe Illustrator 16.0.4, SVG Export Plug-In . SVG Version: 6.00 Build 0)  -->
<!DOCTYPE svg PUBLIC "-//W3C//DTD SVG 1.1//EN" "http://www.w3.org/Graphics/SVG/1.1/DTD/svg11.dtd">
<svg version="1.1" id="Capa_1" xmlns="http://www.w3.org/2000/svg" xmlns:xlink="http://www.w3.org/1999/xlink" x="0px" y="0px"
	 width="32.029px" height="32px" viewBox="0 0 32.029 32" style="enable-background:new 0 0 32.029 32;" xml:space="preserve">
<g id="Brush">
	<g>
		<path d="M2.417,23.93c-1.325,1.324-2.231,5.973-2.4,6.891c-0.059,0.322,0.045,0.654,0.277,0.888C0.482,31.896,0.738,32,1.001,32
			c0.06,0,0.12-0.005,0.18-0.016c0.919-0.168,5.573-1.073,6.898-2.398c0.756-0.755,1.173-1.76,1.173-2.828S8.835,24.686,8.08,23.93
			C6.568,22.418,3.929,22.418,2.417,23.93z M6.664,28.172c-0.469,0.469-2.412,1.09-4.374,1.541c0.451-1.961,1.072-3.9,1.542-4.369
			c0.378-0.378,0.881-0.586,1.417-0.586s1.038,0.208,1.417,0.586c0.377,0.377,0.585,0.881,0.585,1.414
			C7.251,27.292,7.042,27.794,6.664,28.172z M31.444,0.585C31.067,0.208,30.564,0,30.03,0h-0.001c-0.534,0-1.037,0.209-1.39,0.562
			L7.396,20.369c-0.002,0.003-0.003,0.006-0.005,0.008c-0.006,0.006-0.014,0.012-0.02,0.018c-0.047,0.047-0.07,0.105-0.106,0.158
			c-0.035,0.053-0.079,0.1-0.104,0.156c-0.026,0.062-0.031,0.128-0.044,0.193c-0.014,0.061-0.034,0.119-0.035,0.181
			c-0.001,0.063,0.019,0.128,0.029,0.192c0.012,0.062,0.014,0.123,0.036,0.184c0.025,0.064,0.071,0.118,0.109,0.177
			c0.031,0.05,0.049,0.104,0.09,0.147c0.004,0.004,0.009,0.005,0.013,0.009c0.004,0.005,0.007,0.013,0.011,0.017
			c0.046,0.045,0.104,0.067,0.156,0.104c0.055,0.036,0.104,0.082,0.161,0.107c0.058,0.023,0.117,0.026,0.176,0.039
			c0.066,0.017,0.132,0.039,0.199,0.039c0.059,0.002,0.113-0.019,0.17-0.027c0.069-0.012,0.14-0.014,0.205-0.039
			c0.062-0.022,0.111-0.067,0.167-0.104c0.053-0.032,0.109-0.052,0.155-0.096l0.026-0.022c0.389-0.391,1.023-0.39,1.415,0
			c0.39,0.389,0.39,1.021,0.001,1.412l-0.025,0.026c-0.042,0.046-0.062,0.103-0.094,0.153c-0.036,0.057-0.082,0.107-0.105,0.17
			c-0.022,0.061-0.024,0.125-0.037,0.188c-0.011,0.062-0.03,0.125-0.029,0.189c0.001,0.062,0.022,0.121,0.035,0.183
			c0.014,0.063,0.018,0.13,0.044,0.19c0.024,0.06,0.07,0.107,0.107,0.162c0.035,0.052,0.057,0.108,0.104,0.153
			c0.004,0.005,0.01,0.007,0.015,0.011s0.005,0.01,0.01,0.014c0.062,0.059,0.137,0.092,0.208,0.131
			c0.036,0.021,0.067,0.052,0.106,0.066c0.118,0.047,0.243,0.072,0.368,0.072c0.131,0,0.262-0.027,0.384-0.078
			c0.04-0.019,0.07-0.052,0.107-0.072c0.074-0.043,0.152-0.08,0.217-0.145c0.006-0.006,0.009-0.013,0.015-0.019
			c0.002-0.002,0.006-0.003,0.008-0.007L31.445,3.414C32.225,2.635,32.225,1.366,31.444,0.585z M12.148,21.141
			c-0.138-0.268-0.305-0.522-0.528-0.746c-0.225-0.226-0.48-0.392-0.747-0.529l19.134-17.84L12.148,21.141z"/>
	</g>
</g>
</svg>
