<?xml version="1.0" encoding="iso-8859-1"?>
<!-- Generator: Adobe Illustrator 16.0.4, SVG Export Plug-In . SVG Version: 6.00 Build 0)  -->
<!DOCTYPE svg PUBLIC "-//W3C//DTD SVG 1.1//EN" "http://www.w3.org/Graphics/SVG/1.1/DTD/svg11.dtd">
<svg version="1.1" id="Capa_1" xmlns="http://www.w3.org/2000/svg" xmlns:xlink="http://www.w3.org/1999/xlink" x="0px" y="0px"
	 width="32.004px" height="32px" viewBox="0 0 32.004 32" style="enable-background:new 0 0 32.004 32;" xml:space="preserve">
<g id="Inbox">
	<g>
		<path d="M32,25c0-0.432-0.121-0.85-0.318-1.236L24.961,0.72C24.836,0.294,24.445,0,24,0H8C7.557,0,7.165,0.294,7.041,0.72
			L0.319,23.764C0.123,24.15,0,24.57,0,25l0.003,4.25c0,1.518,1.291,2.75,2.876,2.75h26.25c1.584,0,2.875-1.232,2.875-2.751L32,25z
			 M8.75,2h14.5l5.836,20.01C29.059,22.009,29.029,22,29,22h-3.197L21.979,4.783C21.875,4.326,21.471,4,21,4H11
			c-0.468,0-0.873,0.326-0.977,0.783L6.198,22H3c-0.028,0-0.057,0.009-0.085,0.01L8.75,2z M10,22H8.248l3.555-16h8.396l3.555,16H22
			c-0.552,0-1,0.448-1,1v2.25c0,0.414-0.393,0.75-0.875,0.75h-8.25C11.426,26,11,25.438,11,25v-2C11,22.448,10.553,22,10,22z
			 M29.129,30H2.879c-0.482,0-0.876-0.336-0.876-0.751L2,25.143l0.174-0.591C2.363,24.26,2.682,24,3,24h6v1c0,1.6,1.345,3,2.875,3
			h8.25C21.711,28,23,26.768,23,25.25V24h6c0.318,0,0.639,0.26,0.828,0.552L30,25.143l0.004,4.107
			C30.004,29.664,29.611,30,29.129,30z"/>
	</g>
</g>
</svg>
