<?xml version="1.0" encoding="iso-8859-1"?>
<!-- Generator: Adobe Illustrator 16.0.4, SVG Export Plug-In . SVG Version: 6.00 Build 0)  -->
<!DOCTYPE svg PUBLIC "-//W3C//DTD SVG 1.1//EN" "http://www.w3.org/Graphics/SVG/1.1/DTD/svg11.dtd">
<svg version="1.1" id="Capa_1" xmlns="http://www.w3.org/2000/svg" xmlns:xlink="http://www.w3.org/1999/xlink" x="0px" y="0px"
	 width="32px" height="31.5px" viewBox="0 0 32 31.5" style="enable-background:new 0 0 32 31.5;" xml:space="preserve">
<g id="Phone_x5F_1">
	<g>
		<path d="M16,9.75c-8.972,0-16,3.514-16,8v1c0,1.654,1.346,3,3,3h4c1.654,0,3-1.346,3-3v-1c0-0.995,1.855-2,6-2
			c4.145,0,6,1.005,6,2v1c0,1.654,1.346,3,3,3h4c1.654,0,3-1.346,3-3v-1C32,13.264,24.973,9.75,16,9.75z M30,18.75
			c0,0.552-0.448,1-1,1h-4c-0.552,0-1-0.448-1-1v-1c0-1.494-1.039-4-8-4s-8,2.506-8,4v1c0,0.552-0.448,1-1,1H3c-0.552,0-1-0.448-1-1
			v-1c0-3.536,7.378-6,14-6c8.25,0,14,3.162,14,6V18.75z"/>
	</g>
</g>
</svg>
