<?xml version="1.0" encoding="iso-8859-1"?>
<!-- Generator: Adobe Illustrator 16.0.4, SVG Export Plug-In . SVG Version: 6.00 Build 0)  -->
<!DOCTYPE svg PUBLIC "-//W3C//DTD SVG 1.1//EN" "http://www.w3.org/Graphics/SVG/1.1/DTD/svg11.dtd">
<svg version="1.1" id="Capa_1" xmlns="http://www.w3.org/2000/svg" xmlns:xlink="http://www.w3.org/1999/xlink" x="0px" y="0px"
	 width="17px" height="32.004px" viewBox="0 0 17 32.004" style="enable-background:new 0 0 17 32.004;" xml:space="preserve">
<g id="Leaf">
	<g>
		<path d="M9.326,0.411c-0.372-0.548-1.28-0.548-1.652,0C7.36,0.87,0,11.788,0,21.495c0,4.352,3.283,7.945,7.5,8.443v1.064
			c0,0.553,0.448,1.001,1,1.001s1-0.448,1-1.001v-1.064c4.217-0.498,7.5-4.092,7.5-8.443C17,11.788,9.641,0.87,9.326,0.411z
			 M9.5,27.916v-3.505l2.707-2.709c0.391-0.393,0.391-1.024,0-1.416c-0.391-0.391-1.023-0.391-1.414,0L9.5,21.581v-4.178
			l2.707-2.709c0.391-0.392,0.391-1.023,0-1.416c-0.391-0.391-1.023-0.391-1.414,0L9.5,14.574V8.98c0-0.553-0.448-1.001-1-1.001
			s-1,0.448-1,1.001v5.594l-1.293-1.296c-0.391-0.391-1.023-0.391-1.414,0c-0.391,0.393-0.391,1.024,0,1.416L7.5,17.403v4.178
			l-1.293-1.295c-0.391-0.391-1.023-0.391-1.414,0c-0.391,0.392-0.391,1.023,0,1.416L7.5,24.411v3.505
			C4.39,27.433,2,24.741,2,21.495C2,14.272,6.584,5.99,8.5,2.843C10.416,5.99,15,14.272,15,21.495
			C15,24.741,12.609,27.433,9.5,27.916z"/>
	</g>
</g>
</svg>
