<?xml version="1.0" encoding="iso-8859-1"?>
<!-- Generator: Adobe Illustrator 16.0.4, SVG Export Plug-In . SVG Version: 6.00 Build 0)  -->
<!DOCTYPE svg PUBLIC "-//W3C//DTD SVG 1.1//EN" "http://www.w3.org/Graphics/SVG/1.1/DTD/svg11.dtd">
<svg version="1.1" id="Capa_1" xmlns="http://www.w3.org/2000/svg" xmlns:xlink="http://www.w3.org/1999/xlink" x="0px" y="0px"
	 width="28px" height="32px" viewBox="0 0 28 32" style="enable-background:new 0 0 28 32;" xml:space="preserve">
<g id="Badge_x5F_3">
	<g>
		<path d="M23.984,15.621c0-0.033-0.002-0.064-0.004-0.098C23.77,9.129,19.38,4,14,4C8.621,4,4.233,9.127,4.021,15.52
			c-0.004,0.036-0.005,0.07-0.005,0.107C4.013,15.752,4,15.874,4,16c0,1.163,0.146,2.284,0.404,3.348
			c0.005,0.146,0.039,0.291,0.111,0.428c0.384,1.385,0.969,2.658,1.719,3.77c0.008,0.018,0.019,0.03,0.028,0.046
			C8.098,26.279,10.884,28,14,28c3.124,0,5.915-1.729,7.75-4.43c0.003-0.006,0.007-0.01,0.01-0.016C23.158,21.49,24,18.861,24,16
			C24,15.872,23.986,15.748,23.984,15.621z M15,6.087c2.195,0.345,4.113,1.805,5.385,3.913H15V6.087z M15,12h6.327
			c0.228,0.647,0.403,1.328,0.517,2.039C21.729,14.026,21.626,14,21.5,14c-1.37,0-2.083,0.761-2.604,1.315
			C18.451,15.79,18.232,16,17.749,16s-0.7-0.209-1.146-0.684c-0.375-0.4-0.854-0.904-1.604-1.156V12z M13,6.087V10H7.615
			C8.887,7.892,10.804,6.432,13,6.087z M6.673,12H13v2.145c-0.815,0.253-1.303,0.787-1.685,1.208C10.879,15.833,10.705,16,10.249,16
			c-0.484,0-0.701-0.209-1.145-0.684C8.583,14.761,7.871,14,6.5,14c-0.126,0-0.228,0.026-0.344,0.039
			C6.27,13.328,6.445,12.647,6.673,12z M14,26c-0.774,0-1.521-0.146-2.229-0.402c0.442-0.264,0.762-0.609,1.026-0.902
			C13.245,24.201,13.449,24,14,24c0.484,0,0.701,0.209,1.146,0.686c0.277,0.295,0.615,0.647,1.074,0.914
			C15.516,25.855,14.771,26,14,26z M20.215,22.284c-0.585,0.271-0.99,0.682-1.318,1.03C18.451,23.79,18.232,24,17.749,24
			s-0.7-0.209-1.146-0.684C16.084,22.761,15.371,22,14,22c-1.459,0-2.168,0.781-2.685,1.354C10.879,23.833,10.705,24,10.249,24
			c-0.484,0-0.701-0.209-1.146-0.684c-0.328-0.351-0.733-0.762-1.318-1.032C7.341,21.6,6.97,20.84,6.682,20.021
			c0.358,0.054,0.582,0.254,0.962,0.662C8.165,21.239,8.877,22,10.249,22c1.366,0,2.049-0.754,2.548-1.305
			C13.245,20.201,13.449,20,14,20c0.484,0,0.701,0.209,1.146,0.686C15.666,21.239,16.379,22,17.749,22
			c1.371,0,2.084-0.761,2.604-1.314c0.383-0.408,0.605-0.609,0.965-0.662C21.029,20.84,20.659,21.6,20.215,22.284z M21.835,18.021
			C21.727,18.011,21.615,18,21.5,18c-1.37,0-2.083,0.761-2.604,1.314C18.451,19.79,18.232,20,17.749,20s-0.7-0.21-1.146-0.684
			C16.084,18.761,15.371,18,14,18c-1.459,0-2.168,0.781-2.685,1.354C10.879,19.833,10.705,20,10.249,20
			c-0.484,0-0.701-0.21-1.145-0.684C8.583,18.761,7.871,18,6.5,18c-0.115,0-0.225,0.011-0.335,0.021
			c-0.102-0.617-0.154-1.256-0.16-1.909C6.142,16.041,6.294,16,6.5,16c0.483,0,0.7,0.209,1.144,0.684
			C8.165,17.239,8.877,18,10.249,18c1.366,0,2.049-0.754,2.548-1.305C13.245,16.201,13.449,16,14,16
			c0.484,0,0.701,0.209,1.146,0.686C15.666,17.239,16.379,18,17.749,18c1.371,0,2.084-0.761,2.604-1.314
			C20.799,16.209,21.018,16,21.5,16c0.206,0,0.357,0.041,0.496,0.112C21.99,16.766,21.938,17.404,21.835,18.021z M14,0
			C6.28,0,0,7.178,0,16c0,8.822,6.28,16,14,16c7.721,0,14-7.178,14-16C28,7.178,21.721,0,14,0z M14,30C7.383,30,2,23.721,2,16
			C2,8.28,7.383,2,14,2s12,6.28,12,14C26,23.721,20.617,30,14,30z"/>
	</g>
</g>
</svg>
