<?xml version="1.0" encoding="iso-8859-1"?>
<!-- Generator: Adobe Illustrator 16.0.4, SVG Export Plug-In . SVG Version: 6.00 Build 0)  -->
<!DOCTYPE svg PUBLIC "-//W3C//DTD SVG 1.1//EN" "http://www.w3.org/Graphics/SVG/1.1/DTD/svg11.dtd">
<svg version="1.1" id="Capa_1" xmlns="http://www.w3.org/2000/svg" xmlns:xlink="http://www.w3.org/1999/xlink" x="0px" y="0px"
	 width="32.025px" height="32.031px" viewBox="0 0 32.025 32.031" style="enable-background:new 0 0 32.025 32.031;"
	 xml:space="preserve">
<g id="Previous_x5F_Track">
	<g>
		<path d="M8.041,11.016c-0.554,0-1,0.447-1,1v8c0,0.553,0.446,1,1,1c0.553,0,1-0.447,1-1v-2.382l6.552,3.276
			c0.009,0.004,0.019,0.002,0.027,0.007c0.127,0.06,0.265,0.097,0.413,0.099c0.002,0,0.004,0,0.006,0h0.001c0.001,0,0.001,0,0.001,0
			c0.119,0,0.232-0.029,0.343-0.068c0.031-0.012,0.06-0.024,0.089-0.038c0.085-0.042,0.163-0.095,0.234-0.158
			c0.016-0.015,0.034-0.024,0.049-0.039c0.069-0.071,0.132-0.153,0.179-0.248c0.005-0.01,0.004-0.021,0.008-0.028
			c0.028-0.062,0.036-0.127,0.053-0.191c0.016-0.066,0.038-0.13,0.04-0.196c0-0.011,0.006-0.021,0.006-0.03v-2.382l6.553,3.276
			c0.009,0.004,0.019,0.002,0.027,0.007c0.127,0.06,0.265,0.097,0.413,0.099c0.002,0,0.004,0,0.006,0h0.001c0.001,0,0.001,0,0.001,0
			c0.119,0,0.232-0.028,0.343-0.068c0.031-0.012,0.06-0.024,0.089-0.038c0.085-0.042,0.163-0.095,0.234-0.158
			c0.016-0.015,0.034-0.024,0.049-0.039c0.069-0.071,0.132-0.153,0.179-0.248c0.005-0.01,0.004-0.021,0.008-0.028
			c0.028-0.062,0.036-0.127,0.053-0.191c0.015-0.066,0.038-0.13,0.04-0.196c0-0.011,0.006-0.021,0.006-0.03v-8
			c0-0.011-0.006-0.02-0.006-0.03c-0.002-0.066-0.025-0.13-0.04-0.195c-0.017-0.065-0.023-0.132-0.053-0.192
			c-0.004-0.009-0.003-0.02-0.008-0.029c-0.021-0.044-0.06-0.072-0.087-0.111c-0.042-0.061-0.081-0.122-0.135-0.172
			c-0.046-0.042-0.1-0.069-0.151-0.103c-0.057-0.035-0.108-0.073-0.172-0.097c-0.065-0.024-0.135-0.03-0.204-0.041
			c-0.05-0.008-0.094-0.029-0.146-0.029c-0.011,0-0.021,0.006-0.031,0.006c-0.064,0.002-0.127,0.024-0.192,0.039
			c-0.065,0.016-0.134,0.024-0.193,0.053c-0.009,0.004-0.021,0.003-0.029,0.008l-6.553,3.276v-2.382c0-0.011-0.006-0.02-0.006-0.03
			c-0.002-0.066-0.024-0.13-0.04-0.195c-0.017-0.065-0.023-0.132-0.053-0.192c-0.004-0.009-0.003-0.02-0.008-0.029
			c-0.021-0.044-0.061-0.073-0.088-0.112c-0.042-0.06-0.079-0.121-0.133-0.17c-0.047-0.044-0.103-0.071-0.155-0.104
			c-0.055-0.035-0.105-0.072-0.169-0.096c-0.064-0.024-0.135-0.03-0.205-0.041c-0.049-0.008-0.093-0.029-0.145-0.029
			c-0.011,0-0.021,0.006-0.031,0.006c-0.064,0.002-0.127,0.024-0.191,0.039c-0.065,0.016-0.135,0.024-0.194,0.053
			c-0.009,0.004-0.021,0.003-0.029,0.008l-6.552,3.276v-2.382C9.041,11.463,8.594,11.016,8.041,11.016z M23.04,13.634v4.765
			l-4.765-2.382L23.04,13.634z M15.04,13.634v4.765l-4.765-2.382L15.04,13.634z M15.899,0C8.047,0,1.366,5.569,0.015,13.242
			c-0.096,0.544,0.271,1.062,0.819,1.157c0.543,0.091,1.068-0.269,1.165-0.813C3.181,6.873,9.027,2,15.899,2
			c7.782,0,14.112,6.287,14.112,14.016s-6.329,14.015-14.112,14.015c-6.872,0-12.718-4.873-13.897-11.586
			c-0.098-0.545-0.619-0.907-1.165-0.813c-0.548,0.097-0.915,0.613-0.819,1.157c1.351,7.673,8.03,13.242,15.883,13.242
			c8.893,0,16.126-7.186,16.126-16.016C32.026,7.184,24.791,0,15.899,0z"/>
	</g>
</g>
</svg>
