<?xml version="1.0" encoding="iso-8859-1"?>
<!-- Generator: Adobe Illustrator 16.0.4, SVG Export Plug-In . SVG Version: 6.00 Build 0)  -->
<!DOCTYPE svg PUBLIC "-//W3C//DTD SVG 1.1//EN" "http://www.w3.org/Graphics/SVG/1.1/DTD/svg11.dtd">
<svg version="1.1" id="Capa_1" xmlns="http://www.w3.org/2000/svg" xmlns:xlink="http://www.w3.org/1999/xlink" x="0px" y="0px"
	 width="32.037px" height="32.033px" viewBox="0 0 32.037 32.033" style="enable-background:new 0 0 32.037 32.033;"
	 xml:space="preserve">
<g id="Shuffle_x5F_1">
	<g>
		<path d="M29.142,6.827c-0.315-0.45-0.94-0.562-1.395-0.243c-0.451,0.317-0.561,0.941-0.242,1.394
			c3.379,4.81,3.379,11.274-0.002,16.085c-0.318,0.453-0.209,1.076,0.242,1.395c0.176,0.123,0.377,0.182,0.574,0.182
			c0.313,0,0.625-0.147,0.82-0.425C33.003,19.714,33.003,12.325,29.142,6.827z M7.396,4.711c0.197,0,0.398-0.059,0.572-0.182
			c4.777-3.353,11.209-3.376,16.004-0.061c0.453,0.313,1.078,0.201,1.391-0.254c0.314-0.454,0.201-1.077-0.254-1.391
			c-5.484-3.79-12.836-3.761-18.29,0.07C6.368,3.21,6.259,3.834,6.575,4.285C6.771,4.562,7.081,4.711,7.396,4.711z M4.534,7.966
			C4.851,7.514,4.741,6.89,4.29,6.572C3.839,6.254,3.214,6.365,2.897,6.815c-3.861,5.498-3.863,12.886-0.004,18.381
			c0.193,0.277,0.504,0.427,0.818,0.427c0.199,0,0.398-0.06,0.574-0.183c0.451-0.316,0.561-0.94,0.244-1.393
			C1.153,19.239,1.155,12.775,4.534,7.966z M24.069,27.5c-4.816,3.38-11.283,3.378-16.094-0.002
			c-0.451-0.317-1.076-0.207-1.393,0.243c-0.318,0.451-0.209,1.076,0.242,1.394c2.75,1.933,5.975,2.898,9.197,2.898
			s6.445-0.966,9.195-2.896c0.451-0.318,0.561-0.941,0.244-1.394C25.144,27.291,24.521,27.183,24.069,27.5z M21.499,9.534
			c-3.584,0-6.5,2.916-6.5,6.5c0,2.48-2.02,4.5-4.5,4.5c-2.482,0-4.5-2.02-4.5-4.5c0-1.95,1.236-3.609,3-4.23v1.23
			c0,0.363,0.197,0.698,0.516,0.875c0.15,0.083,0.316,0.125,0.484,0.125c0.184,0,0.367-0.051,0.529-0.152l4-2.5
			c0.293-0.183,0.471-0.503,0.471-0.848c0-0.345-0.178-0.665-0.471-0.848l-4-2.5C10.22,6.992,9.829,6.984,9.515,7.159
			C9.196,7.336,8.999,7.671,8.999,8.034v1.68c-2.902,0.681-5,3.261-5,6.32c0,3.584,2.916,6.5,6.5,6.5s6.5-2.916,6.5-6.5
			c0-2.481,2.018-4.5,4.5-4.5c2.48,0,4.5,2.019,4.5,4.5c0,1.959-1.236,3.611-3,4.229v-1.229c0-0.363-0.197-0.698-0.516-0.875
			c-0.316-0.176-0.707-0.166-1.017,0.027l-4,2.5c-0.291,0.183-0.469,0.502-0.469,0.848c0,0.345,0.178,0.665,0.469,0.848l4,2.5
			c0.162,0.102,0.347,0.152,0.531,0.152c0.166,0,0.334-0.042,0.483-0.125c0.318-0.178,0.517-0.512,0.517-0.875v-1.682
			c2.903-0.677,5-3.246,5-6.318C27.999,12.45,25.083,9.534,21.499,9.534z M10.999,9.839l1.113,0.695l-1.113,0.695V9.839z
			 M20.999,22.229l-1.113-0.695l1.113-0.695V22.229z"/>
	</g>
</g>
</svg>
