<?xml version="1.0" encoding="iso-8859-1"?>
<!-- Generator: Adobe Illustrator 16.0.4, SVG Export Plug-In . SVG Version: 6.00 Build 0)  -->
<!DOCTYPE svg PUBLIC "-//W3C//DTD SVG 1.1//EN" "http://www.w3.org/Graphics/SVG/1.1/DTD/svg11.dtd">
<svg version="1.1" id="Capa_1" xmlns="http://www.w3.org/2000/svg" xmlns:xlink="http://www.w3.org/1999/xlink" x="0px" y="0px"
	 width="32px" height="25px" viewBox="0 0 32 25" style="enable-background:new 0 0 32 25;" xml:space="preserve">
<g id="Shuffle_x5F_2">
	<g>
		<path d="M23.5,4C18.812,4,15,7.813,15,12.501C15,16.084,12.084,19,8.5,19S2,16.084,2,12.501c0-3.415,2.649-6.218,6-6.477v2.977
			C8,9.37,8.203,9.708,8.528,9.882C8.676,9.961,8.838,10.001,9,10.001c0.193,0,0.387-0.058,0.555-0.169l6-4
			C15.833,5.646,16,5.335,16,5c0-0.334-0.167-0.646-0.445-0.831l-6-4.001C9.247-0.038,8.853-0.056,8.528,0.12
			C8.203,0.293,8,0.632,8,1v3.025c-4.454,0.262-8,3.956-8,8.476C0,17.188,3.812,21,8.5,21s8.5-3.812,8.5-8.499
			C17,8.917,19.916,6,23.5,6S30,8.917,30,12.501c0,3.415-2.648,6.218-6,6.475V16c0-0.369-0.203-0.707-0.527-0.883
			c-0.326-0.174-0.721-0.154-1.027,0.051l-6,4C16.167,19.354,16,19.667,16,20s0.167,0.646,0.445,0.832l6,4
			C22.613,24.944,22.807,25,23,25c0.162,0,0.324-0.039,0.473-0.117C23.797,24.708,24,24.37,24,24v-3.024
			c4.454-0.261,8-3.957,8-8.475C32,7.813,28.188,4,23.5,4z M10,2.87L13.197,5L10,7.132V2.87z M22,22.131L18.803,20L22,17.87V22.131z
			"/>
	</g>
</g>
</svg>
