<?xml version="1.0" encoding="iso-8859-1"?>
<!-- Generator: Adobe Illustrator 16.0.4, SVG Export Plug-In . SVG Version: 6.00 Build 0)  -->
<!DOCTYPE svg PUBLIC "-//W3C//DTD SVG 1.1//EN" "http://www.w3.org/Graphics/SVG/1.1/DTD/svg11.dtd">
<svg version="1.1" id="Capa_1" xmlns="http://www.w3.org/2000/svg" xmlns:xlink="http://www.w3.org/1999/xlink" x="0px" y="0px"
	 width="31.878px" height="23.963px" viewBox="0 0 31.878 23.963" style="enable-background:new 0 0 31.878 23.963;"
	 xml:space="preserve">
<g id="Check">
	<g>
		<path d="M30.707,1.133c-1.51-1.511-4.146-1.511-5.656,0L11.876,14.306l-5.05-5.05c-1.513-1.513-4.146-1.511-5.657,0
			c-1.559,1.559-1.56,4.097,0,5.656l7.879,7.879c0.756,0.756,1.76,1.172,2.828,1.172c1.069,0,2.073-0.416,2.828-1.172l16.002-16
			c0.756-0.756,1.172-1.761,1.172-2.829S31.462,1.889,30.707,1.133z M29.292,5.377l-16.002,16c-0.756,0.756-2.072,0.756-2.828,0
			l-7.879-7.878c-0.779-0.78-0.779-2.049,0-2.829c0.378-0.378,0.88-0.586,1.415-0.586c0.534,0,1.036,0.208,1.414,0.586l5.757,5.757
			c0.391,0.391,1.023,0.391,1.414,0L26.462,2.548c0.756-0.756,2.074-0.756,2.83,0c0.377,0.377,0.586,0.88,0.586,1.414
			C29.878,4.496,29.669,4.999,29.292,5.377z"/>
	</g>
</g>
</svg>
