<?xml version="1.0" encoding="iso-8859-1"?>
<!-- Generator: Adobe Illustrator 16.0.4, SVG Export Plug-In . SVG Version: 6.00 Build 0)  -->
<!DOCTYPE svg PUBLIC "-//W3C//DTD SVG 1.1//EN" "http://www.w3.org/Graphics/SVG/1.1/DTD/svg11.dtd">
<svg version="1.1" id="Capa_1" xmlns="http://www.w3.org/2000/svg" xmlns:xlink="http://www.w3.org/1999/xlink" x="0px" y="0px"
	 width="26px" height="32px" viewBox="0 0 26 32" style="enable-background:new 0 0 26 32;" xml:space="preserve">
<g id="Badge_x5F_2">
	<g>
		<path d="M24,0c-1.104,0-2,0.896-2,2c0,0.738,0.404,1.376,1,1.723v3.987C22.354,7.901,21.684,8,21,8
			c-3.131,0-5.787-2.066-6.68-4.906l0.387-0.387c0.391-0.391,0.391-1.023,0-1.414l-1-1c-0.092-0.092-0.203-0.165-0.325-0.216
			c-0.245-0.101-0.52-0.101-0.765,0c-0.122,0.051-0.233,0.124-0.325,0.216l-1,1c-0.391,0.391-0.391,1.023,0,1.414l0.387,0.387
			C10.787,5.934,8.131,8,5,8c-0.685,0-1.355-0.098-2-0.29V3.723C3.595,3.375,4,2.737,4,2c0-1.104-0.896-2-2-2S0,0.896,0,2
			c0,0.738,0.405,1.376,1,1.723V16c0,4.065,2.543,7.813,5.235,10.645c0.005,0.004,0.006,0.012,0.012,0.018
			c0.004,0.002,0.009,0.004,0.012,0.008c2.899,3.043,5.961,5.021,6.204,5.176c0.01,0.006,0.021,0.008,0.032,0.014
			c0.052,0.031,0.107,0.053,0.163,0.074c0.028,0.01,0.055,0.023,0.084,0.031c0.079,0.021,0.16,0.033,0.243,0.033
			C12.99,31.998,12.995,32,13,32l0,0l0,0c0.005,0,0.01-0.002,0.015-0.002c0.083-0.002,0.164-0.014,0.243-0.035
			c0.029-0.006,0.055-0.021,0.083-0.031c0.057-0.021,0.111-0.043,0.164-0.072c0.011-0.008,0.021-0.01,0.031-0.016
			c0.241-0.152,3.269-2.109,6.153-5.121c0-0.002,0.004-0.002,0.004-0.004c0.002-0.002,0.004-0.006,0.006-0.008
			C22.417,23.871,25,20.098,25,16V3.723C25.596,3.375,26,2.737,26,2C26,0.896,25.104,0,24,0z M5,10c3.483,0,6.505-1.994,8-4.896
			C14.495,8.005,17.518,10,21,10c0.023,0,0.046-0.003,0.068-0.004l-8.102,8.327L4.915,9.996C4.943,9.996,4.972,10,5,10z M3,10.893
			L5.038,13H3V10.893z M3,16v-1h3.972l1.934,2H3.07C3.028,16.668,3,16.334,3,16z M3.55,19h7.29l0.731,0.756l-1.27,1.305
			C10.205,21.029,10.107,21,10,21H4.462C4.1,20.352,3.79,19.682,3.55,19z M5.768,23h2.646l-1.438,1.479
			C6.558,24.006,6.151,23.512,5.768,23z M13,29.793c-0.889-0.621-2.759-2.002-4.647-3.861l4.609-4.736l4.631,4.789
			C15.725,27.816,13.881,29.18,13,29.793z M18.975,24.535L17.49,23h2.742C19.833,23.533,19.41,24.045,18.975,24.535z M21.538,21H16
			c-0.132,0-0.256,0.029-0.372,0.074l-1.271-1.314l0.74-0.76h7.354C22.21,19.682,21.9,20.352,21.538,21z M23,16
			c0,0.335-0.027,0.668-0.07,1h-5.886l1.948-2.002C18.995,14.998,18.997,15,19,15h4V16z M23,13h-2.062L23,10.879V13z M16,12
			c0-1.654-1.346-3-3-3c-1.654,0-3,1.346-3,3s1.346,3,3,3C14.654,15,16,13.653,16,12z M12,12c0-0.552,0.449-1,1-1s1,0.448,1,1
			c0,0.551-0.449,1-1,1S12,12.55,12,12z M11.293,24.293c-0.391,0.391-0.391,1.023,0,1.414L11.586,26l-0.293,0.293
			c-0.391,0.391-0.391,1.023,0,1.414C11.488,27.902,11.744,28,12,28s0.512-0.098,0.707-0.293L13,27.414l0.293,0.293
			C13.488,27.902,13.744,28,14,28s0.512-0.098,0.707-0.293c0.391-0.391,0.391-1.023,0-1.414L14.414,26l0.293-0.293
			c0.391-0.391,0.391-1.023,0-1.414s-1.023-0.391-1.414,0L13,24.586l-0.293-0.293C12.316,23.902,11.684,23.902,11.293,24.293z"/>
	</g>
</g>
</svg>
