<?xml version="1.0" encoding="iso-8859-1"?>
<!-- Generator: Adobe Illustrator 16.0.4, SVG Export Plug-In . SVG Version: 6.00 Build 0)  -->
<!DOCTYPE svg PUBLIC "-//W3C//DTD SVG 1.1//EN" "http://www.w3.org/Graphics/SVG/1.1/DTD/svg11.dtd">
<svg version="1.1" id="Capa_1" xmlns="http://www.w3.org/2000/svg" xmlns:xlink="http://www.w3.org/1999/xlink" x="0px" y="0px"
	 width="32.018px" height="31.994px" viewBox="0 0 32.018 31.994" style="enable-background:new 0 0 32.018 31.994;"
	 xml:space="preserve">
<g id="Scissors">
	<g>
		<path d="M20.922,20.177l-2.75-3.032c0.525,0.184,1.072,0.293,1.625,0.293c1.302,0,2.609-0.508,3.623-1.528l7.129-8.49
			c0.945-0.951,1.468-2.217,1.468-3.562c0-1.347-0.521-2.612-1.468-3.563c-0.006-0.007-0.014-0.008-0.02-0.013
			c-0.006-0.006-0.008-0.015-0.014-0.02c-0.048-0.042-0.103-0.061-0.153-0.092c-0.056-0.035-0.107-0.079-0.168-0.103
			c-0.063-0.023-0.128-0.026-0.192-0.037c-0.062-0.011-0.122-0.03-0.184-0.028c-0.067,0.001-0.131,0.022-0.197,0.038
			c-0.059,0.014-0.119,0.019-0.176,0.043c-0.064,0.027-0.117,0.076-0.176,0.117c-0.045,0.032-0.098,0.052-0.139,0.093
			c-0.007,0.005-0.007,0.013-0.013,0.019s-0.014,0.008-0.02,0.015L16.008,14.761L2.92,0.325C2.914,0.318,2.906,0.316,2.9,0.311
			C2.894,0.305,2.893,0.297,2.887,0.292c-0.044-0.044-0.1-0.064-0.147-0.099c-0.056-0.039-0.104-0.084-0.166-0.11
			C2.512,0.056,2.445,0.05,2.379,0.036c-0.06-0.013-0.115-0.034-0.177-0.035C2.135-0.001,2.07,0.019,2.006,0.03
			C1.945,0.041,1.884,0.043,1.825,0.065C1.764,0.089,1.711,0.133,1.653,0.17C1.604,0.201,1.549,0.219,1.504,0.26
			C1.498,0.265,1.496,0.274,1.49,0.28C1.484,0.284,1.477,0.285,1.471,0.292c-0.948,0.951-1.47,2.217-1.47,3.563
			s0.521,2.611,1.412,3.5l7.242,8.615c0.977,0.982,2.26,1.474,3.542,1.474c0.559,0,1.113-0.109,1.646-0.297l-2.746,3.029
			c-2.859-1.63-6.548-1.178-8.918,1.209c-2.796,2.811-2.916,7.323-0.273,10.276c0.01,0.012,0.027,0.016,0.037,0.026
			c0.014,0.014,0.018,0.03,0.031,0.043c0.057,0.053,0.123,0.08,0.188,0.117c0.038,0.021,0.07,0.051,0.109,0.066
			c0.123,0.05,0.25,0.079,0.379,0.079c0.127,0,0.254-0.028,0.375-0.077c0.041-0.018,0.074-0.048,0.113-0.07
			c0.062-0.035,0.127-0.062,0.182-0.111c0.013-0.012,0.018-0.027,0.03-0.041c0.012-0.012,0.027-0.016,0.04-0.027l12.618-13.915
			l12.617,13.915c0.014,0.014,0.029,0.018,0.041,0.027c0.014,0.014,0.019,0.029,0.03,0.041c0.056,0.052,0.121,0.078,0.184,0.113
			c0.038,0.021,0.071,0.053,0.112,0.068c0.12,0.049,0.247,0.077,0.374,0.077c0.13,0,0.257-0.029,0.379-0.079
			c0.039-0.016,0.071-0.046,0.109-0.066c0.062-0.037,0.132-0.064,0.187-0.117c0.015-0.013,0.021-0.029,0.031-0.043
			c0.012-0.012,0.027-0.016,0.039-0.026c2.642-2.953,2.521-7.468-0.274-10.276C27.469,18.999,23.78,18.547,20.922,20.177z
			 M29.739,2.611c0.175,0.387,0.271,0.807,0.271,1.244c0,0.807-0.312,1.566-0.938,2.199l-7.129,8.49
			c-0.949,0.955-2.375,1.123-3.508,0.53L29.739,2.611z M10.13,14.607L2.887,5.992c-0.567-0.57-0.882-1.33-0.882-2.137
			c0-0.438,0.101-0.857,0.273-1.244l11.303,12.465C12.451,15.672,11.033,15.512,10.13,14.607z M2.737,29.395
			c-1.206-2.094-0.91-4.805,0.857-6.582c1.623-1.633,4.082-2.021,6.102-1.09L2.737,29.395z M29.281,29.395l-6.959-7.672
			c2.019-0.931,4.479-0.543,6.1,1.09C30.191,24.59,30.488,27.301,29.281,29.395z"/>
	</g>
</g>
</svg>
