<?xml version="1.0" encoding="iso-8859-1"?>
<!-- Generator: Adobe Illustrator 16.0.4, SVG Export Plug-In . SVG Version: 6.00 Build 0)  -->
<!DOCTYPE svg PUBLIC "-//W3C//DTD SVG 1.1//EN" "http://www.w3.org/Graphics/SVG/1.1/DTD/svg11.dtd">
<svg version="1.1" id="Capa_1" xmlns="http://www.w3.org/2000/svg" xmlns:xlink="http://www.w3.org/1999/xlink" x="0px" y="0px"
	 width="28px" height="32px" viewBox="0 0 28 32" style="enable-background:new 0 0 28 32;" xml:space="preserve">
<g id="Bag">
	<g>
		<path d="M25.996,8.91C25.949,8.395,25.518,8,25,8h-5V6c0-3.309-2.691-6-6-6c-3.309,0-6,2.691-6,6v2H3
			C2.482,8,2.051,8.395,2.004,8.91l-2,22c-0.025,0.279,0.068,0.557,0.258,0.764C0.451,31.882,0.719,32,1,32h26
			c0.281,0,0.549-0.118,0.738-0.326c0.188-0.207,0.283-0.484,0.258-0.764L25.996,8.91z M10,6c0-2.206,1.795-4,4-4s4,1.794,4,4v2h-8
			V6z M2.096,30l1.817-20H8v2.277C7.404,12.624,7,13.262,7,14c0,1.104,0.896,2,2,2s2-0.896,2-2c0-0.738-0.404-1.376-1-1.723V10h8
			v2.277c-0.596,0.347-1,0.984-1,1.723c0,1.104,0.896,2,2,2s2-0.896,2-2c0-0.738-0.404-1.376-1-1.723V10h4.087l1.817,20H2.096z"/>
	</g>
</g>
</svg>
