<?xml version="1.0" encoding="iso-8859-1"?>
<!-- Generator: Adobe Illustrator 16.0.4, SVG Export Plug-In . SVG Version: 6.00 Build 0)  -->
<!DOCTYPE svg PUBLIC "-//W3C//DTD SVG 1.1//EN" "http://www.w3.org/Graphics/SVG/1.1/DTD/svg11.dtd">
<svg version="1.1" id="Capa_1" xmlns="http://www.w3.org/2000/svg" xmlns:xlink="http://www.w3.org/1999/xlink" x="0px" y="0px"
	 width="31.996px" height="31.996px" viewBox="0 0 31.996 31.996" style="enable-background:new 0 0 31.996 31.996;"
	 xml:space="preserve">
<g id="Snow">
	<g>
		<path d="M31.996,15.854c-0.005-0.552-0.457-0.996-1.01-0.991l-2.582,0.023l2.271-2.312c0.388-0.395,0.382-1.027-0.013-1.414
			c-0.395-0.387-1.025-0.382-1.414,0.013l-3.672,3.739l-7.174,0.064l4.953-5.044L28.6,9.886c0.553-0.005,0.996-0.457,0.991-1.009
			c-0.005-0.553-0.456-0.996-1.009-0.991l-3.243,0.029l1.884-1.917c0.387-0.395,0.381-1.027-0.014-1.414s-1.027-0.382-1.414,0.013
			l-1.881,1.915l-0.029-3.241c-0.006-0.552-0.457-0.996-1.01-0.991c-0.552,0.005-0.996,0.457-0.99,1.01l0.047,5.24l-4.955,5.046
			l-0.064-7.17l3.675-3.741c0.388-0.395,0.381-1.027-0.013-1.414c-0.395-0.387-1.026-0.381-1.414,0.013l-2.273,2.314l-0.021-2.586
			C16.857,0.438,16.406-0.005,15.854,0c-0.552,0.005-0.996,0.456-0.99,1.009l0.023,2.584l-2.312-2.271
			c-0.395-0.387-1.027-0.382-1.414,0.013c-0.388,0.395-0.382,1.027,0.012,1.414l3.739,3.673l0.064,7.172L9.932,8.64L9.885,3.396
			C9.88,2.844,9.428,2.4,8.876,2.405C8.324,2.411,7.881,2.861,7.885,3.415l0.029,3.243L5.998,4.774
			c-0.394-0.386-1.027-0.38-1.414,0.013C4.197,5.183,4.202,5.814,4.597,6.202l1.915,1.882L3.271,8.112
			C2.719,8.118,2.275,8.568,2.279,9.122c0.006,0.552,0.457,0.996,1.01,0.991l5.241-0.047l5.044,4.954l-7.172,0.063l-3.738-3.672
			c-0.395-0.387-1.027-0.381-1.414,0.014c-0.388,0.394-0.382,1.026,0.012,1.413l2.312,2.271L0.99,15.132
			C0.438,15.138-0.006,15.589,0,16.142c0.004,0.552,0.456,0.995,1.009,0.991l2.585-0.023L1.32,19.424
			c-0.387,0.395-0.381,1.025,0.014,1.414c0.197,0.191,0.453,0.289,0.709,0.285c0.256-0.002,0.512-0.102,0.705-0.299l3.674-3.74
			l7.17-0.064l-4.955,5.045l-5.24,0.047c-0.553,0.006-0.997,0.457-0.993,1.01c0.006,0.553,0.457,0.996,1.01,0.99l3.24-0.029
			l-1.881,1.916c-0.387,0.395-0.381,1.025,0.013,1.414c0.197,0.193,0.454,0.289,0.71,0.287c0.256-0.004,0.511-0.104,0.704-0.301
			l1.882-1.916l0.029,3.244c0.006,0.551,0.457,0.996,1.01,0.99c0.552-0.004,0.996-0.457,0.99-1.01l-0.047-5.242l4.954-5.045
			l0.064,7.174l-3.673,3.738c-0.387,0.395-0.381,1.027,0.013,1.414s1.026,0.383,1.414-0.014l2.271-2.311l0.022,2.584
			c0.006,0.551,0.457,0.996,1.01,0.99c0.552-0.004,0.996-0.457,0.99-1.01L17.105,28.4l2.314,2.273
			c0.197,0.193,0.454,0.289,0.711,0.287c0.256-0.002,0.51-0.104,0.703-0.299c0.389-0.396,0.382-1.027-0.012-1.414l-3.741-3.676
			L17.018,18.4l5.045,4.957l0.047,5.242c0.006,0.551,0.457,0.994,1.01,0.99c0.552-0.006,0.994-0.457,0.99-1.01l-0.028-3.24
			l1.915,1.881c0.197,0.193,0.454,0.289,0.71,0.287c0.256-0.004,0.511-0.104,0.704-0.301c0.388-0.395,0.382-1.025-0.014-1.414
			l-1.916-1.881l3.242-0.029c0.553-0.006,0.996-0.457,0.992-1.01c-0.006-0.553-0.457-0.996-1.01-0.99l-5.242,0.047l-5.045-4.957
			l7.172-0.062l3.74,3.674c0.197,0.193,0.454,0.289,0.71,0.287s0.511-0.104,0.704-0.299c0.388-0.395,0.382-1.027-0.012-1.414
			l-2.314-2.273l2.586-0.023C31.559,16.857,32.002,16.407,31.996,15.854z"/>
	</g>
</g>
</svg>
