<?xml version="1.0" encoding="iso-8859-1"?>
<!-- Generator: Adobe Illustrator 16.0.4, SVG Export Plug-In . SVG Version: 6.00 Build 0)  -->
<!DOCTYPE svg PUBLIC "-//W3C//DTD SVG 1.1//EN" "http://www.w3.org/Graphics/SVG/1.1/DTD/svg11.dtd">
<svg version="1.1" id="Capa_1" xmlns="http://www.w3.org/2000/svg" xmlns:xlink="http://www.w3.org/1999/xlink" x="0px" y="0px"
	 width="32px" height="32px" viewBox="0 0 32 32" style="enable-background:new 0 0 32 32;" xml:space="preserve">
<g id="Link_x5F_2">
	<g>
		<path d="M31.708,0.293c-0.391-0.391-1.023-0.391-1.414,0l-4.395,4.395l-0.989-0.99c-0.982-0.982-2.694-0.982-3.677,0L15.01,9.919
			c-0.491,0.491-0.761,1.145-0.762,1.838c0,0.695,0.271,1.349,0.762,1.84L16,14.586L14.586,16l-0.99-0.989
			c-0.982-0.982-2.696-0.981-3.677-0.001l-6.223,6.223c-1.014,1.016-1.014,2.664,0,3.678l0.99,0.99l-4.394,4.394
			c-0.391,0.392-0.391,1.022,0,1.414C0.488,31.902,0.745,32,1,32s0.512-0.098,0.707-0.293l4.394-4.395l0.99,0.992
			c0.491,0.489,1.145,0.76,1.839,0.76c0.693,0,1.347-0.271,1.838-0.762l6.224-6.224c1.014-1.015,1.014-2.662,0-3.677L16,17.414
			L17.415,16l0.99,0.99c0.49,0.49,1.145,0.762,1.839,0.762s1.348-0.271,1.838-0.762l6.224-6.224c1.014-1.015,1.014-2.663,0-3.678
			l-0.99-0.988l4.394-4.395C32.099,1.316,32.099,0.685,31.708,0.293z M15.577,20.667l-6.222,6.224c-0.227,0.227-0.622,0.226-0.849,0
			l-0.99-0.99l2.369-2.369c0.391-0.393,0.391-1.024,0-1.415c-0.391-0.39-1.023-0.39-1.414,0l-2.369,2.37l-0.99-0.989
			c-0.233-0.233-0.233-0.615,0-0.849l6.223-6.225c0.113-0.111,0.264-0.176,0.424-0.176c0.16,0,0.312,0.063,0.425,0.177l0.99,0.99
			l-2.121,2.121c-0.391,0.391-0.391,1.022,0,1.413c0.195,0.195,0.451,0.293,0.707,0.293c0.256,0,0.512-0.098,0.707-0.293
			l2.121-2.121l0.99,0.99C15.811,20.052,15.811,20.434,15.577,20.667z M26.892,9.354l-6.224,6.223c-0.228,0.227-0.622,0.228-0.849,0
			l-0.99-0.991l2.121-2.12c0.391-0.391,0.391-1.022,0-1.414c-0.391-0.391-1.023-0.391-1.414,0l-2.121,2.121l-0.991-0.989
			c-0.113-0.113-0.176-0.265-0.176-0.426c0-0.158,0.062-0.31,0.176-0.423l6.223-6.223c0.113-0.114,0.266-0.177,0.426-0.177
			s0.311,0.062,0.424,0.176l0.99,0.991l-2.369,2.369c-0.391,0.391-0.391,1.023,0,1.413c0.195,0.195,0.451,0.294,0.707,0.294
			s0.512-0.099,0.707-0.294l2.369-2.369l0.99,0.988C27.124,8.738,27.124,9.119,26.892,9.354z"/>
	</g>
</g>
</svg>
