<?xml version="1.0" encoding="iso-8859-1"?>
<!-- Generator: Adobe Illustrator 16.0.4, SVG Export Plug-In . SVG Version: 6.00 Build 0)  -->
<!DOCTYPE svg PUBLIC "-//W3C//DTD SVG 1.1//EN" "http://www.w3.org/Graphics/SVG/1.1/DTD/svg11.dtd">
<svg version="1.1" id="Capa_1" xmlns="http://www.w3.org/2000/svg" xmlns:xlink="http://www.w3.org/1999/xlink" x="0px" y="0px"
	 width="32px" height="31.971px" viewBox="0 0 32 31.971" style="enable-background:new 0 0 32 31.971;" xml:space="preserve">
<g id="Speech_x5F_Balloon_x5F_Empty">
	<g>
		<path d="M29.125,0H2.875C1.29,0,0,1.233,0,2.75v26.221c0,0.797,0.312,1.549,0.881,2.12c0.569,0.567,1.322,0.88,2.12,0.88
			c0.801,0,1.554-0.312,2.108-0.867l6.598-6.371C12.18,24.26,12.808,24,13.475,24h15.65C30.71,24,32,22.767,32,21.25V2.75
			C32,1.233,30.71,0,29.125,0z M30,21.25c0,0.413-0.393,0.75-0.875,0.75h-15.65c-1.201,0-2.332,0.468-3.169,1.306l-6.598,6.372
			c-0.381,0.38-1.03,0.381-1.413-0.001C2.103,29.482,2,29.238,2,28.971L2.001,12H2V2.75C2,2.336,2.393,2,2.875,2h26.25
			C29.607,2,30,2.336,30,2.75V21.25z"/>
	</g>
</g>
</svg>
