<?xml version="1.0" encoding="iso-8859-1"?>
<!-- Generator: Adobe Illustrator 16.0.4, SVG Export Plug-In . SVG Version: 6.00 Build 0)  -->
<!DOCTYPE svg PUBLIC "-//W3C//DTD SVG 1.1//EN" "http://www.w3.org/Graphics/SVG/1.1/DTD/svg11.dtd">
<svg version="1.1" id="Capa_1" xmlns="http://www.w3.org/2000/svg" xmlns:xlink="http://www.w3.org/1999/xlink" x="0px" y="0px"
	 width="32.004px" height="31.969px" viewBox="0 0 32.004 31.969" style="enable-background:new 0 0 32.004 31.969;"
	 xml:space="preserve">
<g id="Mix_x5F_Tracks">
	<g>
		<path d="M0.837,14.371c0.551,0.095,1.076-0.268,1.173-0.811c1.191-6.701,7.072-11.564,14-11.564
			c6.913,0,12.793,4.863,13.981,11.563c0.097,0.543,0.622,0.906,1.172,0.812c0.493-0.084,0.839-0.507,0.839-0.982
			c0-0.057-0.005-0.114-0.016-0.172C30.629,5.559,23.909,0,15.994,0C8.096,0,1.375,5.559,0.015,13.216
			C-0.08,13.768,0.288,14.276,0.837,14.371z M31.166,17.598c-0.551-0.095-1.076,0.269-1.173,0.812
			c-1.19,6.7-7.071,11.563-13.999,11.563c-6.913,0-12.793-4.863-13.981-11.562c-0.097-0.543-0.621-0.906-1.172-0.812
			c-0.551,0.096-0.918,0.614-0.824,1.154C1.375,26.41,8.095,31.969,16.01,31.969c7.898,0,14.618-5.559,15.979-13.215
			c0.011-0.059,0.016-0.117,0.016-0.174C32.004,18.104,31.658,17.684,31.166,17.598z M20.521,25.168
			c0.146,0.081,0.309,0.12,0.471,0.12c0.193,0,0.387-0.058,0.554-0.17l4.792-3.24c0.278-0.188,0.444-0.504,0.444-0.843
			c0-0.34-0.167-0.655-0.444-0.844l-4.792-3.242c-0.306-0.207-0.7-0.227-1.024-0.051c-0.324,0.177-0.526,0.52-0.526,0.895v2.432
			h-1.996c-0.591,0-1.181-0.146-1.753-0.434c-0.496-0.247-1.093-0.042-1.336,0.461c-0.245,0.501-0.041,1.107,0.454,1.355
			c0.85,0.427,1.738,0.642,2.636,0.642h1.996v2.026C19.994,24.648,20.197,24.992,20.521,25.168z M21.99,19.686l1.994,1.351
			l-1.994,1.348V19.686z M7.02,12.121h1c0.59,0,1.178,0.146,1.75,0.432c0.142,0.072,0.293,0.105,0.441,0.105
			c0.369,0,0.722-0.207,0.896-0.564c0.245-0.501,0.042-1.109-0.452-1.356c-0.85-0.427-1.736-0.642-2.636-0.642h-1
			c-0.552,0-0.998,0.453-0.998,1.012C6.021,11.668,6.468,12.121,7.02,12.121z M26.337,10.467l-4.792-3.24
			C21.24,7.02,20.846,7,20.521,7.177c-0.326,0.176-0.527,0.519-0.527,0.893v2.026h-1.996c-3.302,0-5.988,2.726-5.988,6.076
			c0,2.235-1.791,4.053-3.99,4.053h-1c-0.552,0-0.998,0.452-0.998,1.012c0,0.562,0.446,1.014,0.998,1.014h1
			c3.301,0,5.986-2.727,5.986-6.077c0-2.234,1.791-4.051,3.992-4.051h1.996v2.432c0,0.373,0.203,0.717,0.527,0.893
			c0.146,0.08,0.309,0.119,0.471,0.119c0.193,0,0.387-0.057,0.554-0.17l4.792-3.242c0.278-0.188,0.444-0.504,0.444-0.843
			S26.615,10.655,26.337,10.467z M21.99,12.659V9.962l1.994,1.348L21.99,12.659z"/>
	</g>
</g>
</svg>
