<?xml version="1.0" encoding="iso-8859-1"?>
<!-- Generator: Adobe Illustrator 16.0.4, SVG Export Plug-In . SVG Version: 6.00 Build 0)  -->
<!DOCTYPE svg PUBLIC "-//W3C//DTD SVG 1.1//EN" "http://www.w3.org/Graphics/SVG/1.1/DTD/svg11.dtd">
<svg version="1.1" id="Capa_1" xmlns="http://www.w3.org/2000/svg" xmlns:xlink="http://www.w3.org/1999/xlink" x="0px" y="0px"
	 width="32.029px" height="31.977px" viewBox="0 0 32.029 31.977" style="enable-background:new 0 0 32.029 31.977;"
	 xml:space="preserve">
<g id="Phone_x5F_2">
	<g>
		<path d="M30.989,2.591L30.09,1.692c-1.109-1.106-2.711-1.691-4.631-1.691c-4.745,0-11.097,3.397-16.58,8.871
			C0.917,16.819-2.243,26.119,1.686,30.041l0.899,0.898c0.671,0.668,1.562,1.037,2.512,1.037s1.841-0.369,2.513-1.039l3.598-3.59
			c1.384-1.381,1.386-3.631,0-5.014l-0.899-0.898c-0.958-0.957-0.518-3.443,3.597-7.55c3.504-3.496,5.532-4.019,6.43-4.019
			c0.475,0,0.845,0.141,1.134,0.43l0.899,0.896c1.341,1.34,3.684,1.342,5.024,0l3.595-3.59c0.674-0.669,1.042-1.56,1.042-2.507
			S31.661,3.26,30.989,2.591z M29.561,6.179l-3.597,3.59c-0.58,0.578-1.589,0.58-2.168,0l-0.899-0.896
			c-0.668-0.667-1.553-1.021-2.562-1.021c-2.149,0-4.792,1.551-7.858,4.609c-6.325,6.312-4.622,9.376-3.597,10.4l0.898,0.896
			c0.599,0.598,0.599,1.568,0,2.164l-3.596,3.59c-0.582,0.578-1.591,0.578-2.17,0l-0.897-0.896
			c-3.025-3.02,0.269-11.408,7.192-18.318c5.041-5.031,10.988-8.281,15.152-8.281c1.393,0,2.47,0.37,3.203,1.103l0.897,0.896
			c0.29,0.29,0.45,0.675,0.45,1.083C30.011,5.506,29.851,5.889,29.561,6.179z"/>
	</g>
</g>
</svg>
