<?xml version="1.0" encoding="iso-8859-1"?>
<!-- Generator: Adobe Illustrator 16.0.4, SVG Export Plug-In . SVG Version: 6.00 Build 0)  -->
<!DOCTYPE svg PUBLIC "-//W3C//DTD SVG 1.1//EN" "http://www.w3.org/Graphics/SVG/1.1/DTD/svg11.dtd">
<svg version="1.1" id="Capa_1" xmlns="http://www.w3.org/2000/svg" xmlns:xlink="http://www.w3.org/1999/xlink" x="0px" y="0px"
	 width="31.969px" height="32.025px" viewBox="0 0 31.969 32.025" style="enable-background:new 0 0 31.969 32.025;"
	 xml:space="preserve">
<g id="Eject">
	<g>
		<path d="M11.077,16.584c-0.028,0.061-0.036,0.125-0.052,0.191c-0.016,0.065-0.038,0.13-0.04,0.197c0,0.011-0.006,0.02-0.006,0.029
			c0,0.05,0.021,0.092,0.028,0.141c0.011,0.072,0.017,0.145,0.043,0.213c0.022,0.062,0.06,0.11,0.093,0.166
			c0.033,0.056,0.063,0.109,0.107,0.158c0.049,0.054,0.109,0.091,0.169,0.134c0.04,0.026,0.068,0.064,0.113,0.088
			c0.01,0.005,0.021,0.004,0.029,0.008c0.063,0.029,0.133,0.038,0.203,0.054c0.062,0.016,0.12,0.036,0.182,0.038
			c0.013,0.001,0.022,0.006,0.034,0.006h8.009c0.002,0,0.002,0,0.002,0h0.006c0.148-0.002,0.287-0.04,0.414-0.099
			c0.01-0.005,0.02-0.003,0.027-0.007c0.045-0.022,0.072-0.062,0.113-0.088c0.059-0.043,0.119-0.08,0.168-0.134
			c0.045-0.049,0.074-0.104,0.107-0.158c0.033-0.056,0.07-0.104,0.094-0.167c0.025-0.067,0.031-0.14,0.043-0.212
			c0.006-0.049,0.027-0.091,0.027-0.141c0-0.011-0.006-0.02-0.006-0.029c-0.002-0.067-0.023-0.132-0.041-0.196
			c-0.016-0.066-0.021-0.133-0.051-0.193c-0.004-0.009-0.004-0.02-0.008-0.028l-4.004-8.038c-0.34-0.683-1.451-0.683-1.792,0
			l-4.005,8.038C11.08,16.563,11.081,16.574,11.077,16.584z M15.984,11.211l2.385,4.786h-4.769L15.984,11.211z M19.988,20.017
			h-8.009c-0.553,0-1.001,0.448-1.001,1.005c0,0.555,0.448,1.005,1.001,1.005h8.009c0.555,0,1.002-0.45,1.002-1.005
			C20.99,20.466,20.543,20.017,19.988,20.017z M18.752,0.017c-0.545-0.097-1.061,0.271-1.154,0.817
			C17.504,1.383,17.867,1.904,18.41,2c6.699,1.182,11.562,7.026,11.562,13.898c0,7.783-6.275,14.112-13.988,14.112
			S1.997,23.682,1.997,15.899c0-6.872,4.863-12.719,11.563-13.9c0.544-0.097,0.906-0.618,0.812-1.166
			c-0.095-0.547-0.613-0.912-1.155-0.817C5.56,1.365,0,8.046,0,15.899c0,8.893,7.17,16.126,15.984,16.126
			c8.814,0,15.984-7.233,15.984-16.126C31.969,8.046,26.41,1.365,18.752,0.017z"/>
	</g>
</g>
</svg>
