<?xml version="1.0" encoding="iso-8859-1"?>
<!-- Generator: Adobe Illustrator 16.0.4, SVG Export Plug-In . SVG Version: 6.00 Build 0)  -->
<!DOCTYPE svg PUBLIC "-//W3C//DTD SVG 1.1//EN" "http://www.w3.org/Graphics/SVG/1.1/DTD/svg11.dtd">
<svg version="1.1" id="Capa_1" xmlns="http://www.w3.org/2000/svg" xmlns:xlink="http://www.w3.org/1999/xlink" x="0px" y="0px"
	 width="32px" height="28px" viewBox="0 0 32 28" style="enable-background:new 0 0 32 28;" xml:space="preserve">
<g id="Globe">
	<g>
		<path d="M16,0C7.178,0,0,6.28,0,14c0,7.721,7.178,14,16,14c8.822,0,16-6.279,16-14C32,6.28,24.822,0,16,0z M10.357,3.026
			C9.77,3.754,9.247,4.6,8.796,5.537C8.222,5.278,7.68,4.997,7.191,4.686C8.15,4.018,9.215,3.46,10.357,3.026z M5.553,6.039
			c0.732,0.525,1.561,0.993,2.47,1.394C7.463,9.105,7.119,10.989,7.031,13H2.059C2.317,10.338,3.594,7.926,5.553,6.039z M2.059,15
			h4.973c0.088,2.014,0.432,3.896,0.992,5.57c-0.908,0.4-1.732,0.871-2.464,1.396C3.597,20.079,2.317,17.665,2.059,15z
			 M7.195,23.318c0.49-0.312,1.022-0.602,1.599-0.858c0.452,0.938,0.975,1.785,1.563,2.515C9.217,24.541,8.153,23.984,7.195,23.318z
			 M15,25.855c-1.688-0.436-3.201-1.941-4.286-4.101c1.319-0.391,2.765-0.64,4.286-0.717V25.855z M15,19.038
			c-1.815,0.079-3.521,0.368-5.065,0.838C9.438,18.404,9.119,16.75,9.03,15H15V19.038z M15,13H9.03
			c0.089-1.75,0.408-3.405,0.904-4.876C11.48,8.593,13.185,8.882,15,8.961V13z M15,6.963c-1.521-0.078-2.969-0.326-4.287-0.717
			C11.798,4.088,13.311,2.579,15,2.144V6.963z M29.941,13h-4.974c-0.088-2.014-0.433-3.899-0.993-5.574
			c0.907-0.4,1.73-0.87,2.463-1.396C28.4,7.918,29.684,10.334,29.941,13z M24.803,4.682c-0.488,0.312-1.021,0.601-1.597,0.858
			c-0.452-0.938-0.976-1.785-1.563-2.514C22.783,3.459,23.846,4.016,24.803,4.682z M17,2.144c1.688,0.436,3.201,1.942,4.285,4.1
			C19.967,6.634,18.521,6.883,17,6.961V2.144z M17,8.963c1.814-0.08,3.521-0.369,5.064-0.838c0.498,1.472,0.816,3.125,0.906,4.875
			H17V8.963z M17,15h5.971c-0.09,1.751-0.408,3.404-0.906,4.877c-1.543-0.469-3.248-0.759-5.063-0.839L17,15L17,15z M17,25.855
			v-4.818c1.521,0.078,2.971,0.324,4.288,0.715C20.203,23.912,18.689,25.421,17,25.855z M21.643,24.975
			c0.588-0.728,1.108-1.572,1.561-2.507c0.572,0.259,1.115,0.538,1.604,0.849C23.848,23.982,22.784,24.541,21.643,24.975z
			 M26.443,21.963c-0.73-0.525-1.559-0.995-2.467-1.396c0.561-1.674,0.903-3.557,0.991-5.566h4.974
			C29.684,17.663,28.404,20.075,26.443,21.963z"/>
	</g>
</g>
</svg>
